<svg xmlns="http://www.w3.org/2000/svg" width="160" height="64" viewBox="0 0 160 64"><defs><radialGradient id="a" cx="49.922%" cy="50.657%" r="50.132%" fx="49.922%" fy="50.657%"><stop offset="0%" stop-color="#FFED00"/><stop offset="53%" stop-color="#FFE900"/><stop offset="54%" stop-color="#FEE200"/><stop offset="58%" stop-color="#FBC800"/><stop offset="63%" stop-color="#F9B500"/><stop offset="68%" stop-color="#F7AA00"/><stop offset="73%" stop-color="#F7A600"/><stop offset="88%" stop-color="#E84E0F"/><stop offset="99%" stop-color="#E84E0F"/></radialGradient></defs><g fill="none"><path fill="#1D1D1B" d="M83.906 18.909v10.288h9.697V18.909h6.761v26.182h-6.761V34.204h-9.697v10.887h-6.815V18.909zm29.055 0v10.288h9.715V18.909h6.779v26.182h-6.761V34.204h-9.733v10.887h-6.779V18.909zm29.18.073v11.396l.33-.598 8.316-10.871h8.151l-10.789 12.158L160 45.073h-8.517l-9.158-12.194-.22-.471v12.683h-6.832V18.982zM38.961 30.444a17.132 17.132 0 0 0-1.956-4.244l-4.269 6.73-4.286-6.748a16.772 16.772 0 0 0-1.975 4.262 6.396 6.396 0 0 0-.284 1.953 6.533 6.533 0 0 0 3.166 5.943 6.555 6.555 0 0 0 6.741 0 6.535 6.535 0 0 0 3.166-5.943c0-.663-.102-1.322-.303-1.953z"/><path fill="url(#a)" d="m18.4 40.991 3.375-4.7-5.698-.998-2.54 3.503-8.093-1.398L0 45.255l9.454 1.652 4.682-6.66 4.264.744zm16.857-24.95 1.034 5.734 4.737-3.32-.744-4.283 6.659-4.682L45.255 0l-7.857 5.444 1.398 8.02-3.539 2.577zm-6.514 31.936-.998-5.716-4.736 3.34.744 4.263-6.66 4.682L18.745 64l7.857-5.444-1.398-8.02 3.539-2.559zM45.6 23.01l-3.339 4.736 5.698.998 2.504-3.539 8.02 1.398 5.444-7.857-9.454-1.652-4.681 6.66-4.192-.744zm-22.59-4.592 4.736 3.357.998-5.698-3.539-2.54 1.398-8.093L18.745 0l-1.652 9.454 6.66 4.682-.744 4.282zm17.98 27.219-4.7-3.376-.998 5.716 3.539 2.486-1.397 8.02 7.857 5.444 1.651-9.454-6.66-4.681.708-4.155zm-4.7-35.584-4.246-6.714-4.264 6.714 4.264 6.714 4.246-6.714zm6.533 11.178 7.748-1.815 1.724-7.748-7.748 1.814-1.724 7.749zm-21.557 0-1.815-7.767-7.748-1.814 1.815 7.748 7.748 1.833zm25.912 10.778 6.768 4.282 6.714-4.246-6.714-4.264-6.768 4.228zM27.745 53.947l4.264 6.714 4.282-6.714-4.282-6.768-4.264 6.768zm15.043-11.16 1.814 7.749 7.748 1.724-1.723-7.749-7.84-1.723zM3.338 32.01l6.715 4.282 6.714-4.246-6.714-4.264-6.714 4.228zm17.893 10.779-7.767 1.814-1.814 7.748 7.748-1.723 1.833-7.84zm37.253-5.444-8.02 1.397-2.505-3.538-5.698 1.088 3.34 4.737 4.263-.744 4.682 6.659L64 45.292l-5.516-7.948zm-44.947-12.14 2.504 3.539 5.734-.998-3.339-4.736-4.264.744-4.718-6.66L0 18.745l5.534 7.857 8.003-1.398z"/><path fill="#E94E1B" d="m36.364 23.991-3.627 5.1-3.646-5.1 3.646-5.082z"/></g></svg>