<svg xmlns="http://www.w3.org/2000/svg" width="160" height="64" viewBox="0 0 160 64">
    <defs>
        <radialGradient id="p2fhbug2sa" cx="49.922%" cy="50.657%" r="50.132%" fx="49.922%" fy="50.657%">
            <stop offset="0%" stop-color="#FFED00"/>
            <stop offset="53%" stop-color="#FFE900"/>
            <stop offset="54%" stop-color="#FEE200"/>
            <stop offset="58%" stop-color="#FBC800"/>
            <stop offset="63%" stop-color="#F9B500"/>
            <stop offset="68%" stop-color="#F7AA00"/>
            <stop offset="73%" stop-color="#F7A600"/>
            <stop offset="88%" stop-color="#E84E0F"/>
            <stop offset="99%" stop-color="#E84E0F"/>
        </radialGradient>
    </defs>
    <g fill="none" fill-rule="evenodd">
        <g fill-rule="nonzero">
            <g>
                <path fill="#1D1D1B" d="M83.906 18.909L83.906 29.197 93.603 29.197 93.603 18.909 100.364 18.909 100.364 45.091 93.603 45.091 93.603 34.204 83.906 34.204 83.906 45.091 77.091 45.091 77.091 18.909zM112.961 18.909L112.961 29.197 122.676 29.197 122.676 18.909 129.455 18.909 129.455 45.091 122.694 45.091 122.694 34.204 112.961 34.204 112.961 45.091 106.182 45.091 106.182 18.909zM142.141 18.982L142.141 30.378 142.471 29.78 150.787 18.909 158.938 18.909 148.149 31.067 160 45.073 151.483 45.073 142.325 32.879 142.105 32.408 142.105 45.091 135.273 45.091 135.273 18.982zM38.961 30.444c-.455-1.497-1.113-2.925-1.956-4.244l-4.269 6.73-4.286-6.748c-.855 1.321-1.52 2.756-1.975 4.262-.195.632-.291 1.291-.284 1.953-.126 2.413 1.091 4.698 3.166 5.943 2.074 1.244 4.667 1.244 6.741 0 2.074-1.245 3.292-3.53 3.166-5.943 0-.663-.102-1.322-.303-1.953z" transform="translate(-372 -28) translate(372 28)"/>
                <path fill="url(#p2fhbug2sa)" d="M18.4 40.991l3.375-4.7-5.698-.998-2.54 3.503-8.093-1.398L0 45.255l9.454 1.652 4.682-6.66 4.264.744zm16.857-24.95l1.034 5.734 4.737-3.32-.744-4.283 6.659-4.682L45.255 0l-7.857 5.444 1.398 8.02-3.539 2.577zm-6.514 31.936l-.998-5.716-4.736 3.34.744 4.263-6.66 4.682L18.745 64l7.857-5.444-1.398-8.02 3.539-2.559zM45.6 23.01l-3.339 4.736 5.698.998 2.504-3.539 8.02 1.398 5.444-7.857-9.454-1.652-4.681 6.66-4.192-.744zM23.01 18.418l4.736 3.357.998-5.698-3.539-2.54 1.398-8.093L18.745 0l-1.652 9.454 6.66 4.682-.744 4.282zM40.99 45.637l-4.7-3.376-.998 5.716 3.539 2.486-1.397 8.02 7.857 5.444 1.651-9.454-6.66-4.681.708-4.155zm-4.7-35.584l-4.246-6.714-4.264 6.714 4.264 6.714 4.246-6.714zm6.533 11.178l7.748-1.815 1.724-7.748-7.748 1.814-1.724 7.749zm-21.557 0l-1.815-7.767-7.748-1.814 1.815 7.748 7.748 1.833zm25.912 10.778l6.768 4.282 6.714-4.246-6.714-4.264-6.768 4.228zM27.745 53.947l4.264 6.714 4.282-6.714-4.282-6.768-4.264 6.768zm15.043-11.16l1.814 7.749 7.748 1.724-1.723-7.749-7.84-1.723zM3.338 32.01l6.715 4.282 6.714-4.246-6.714-4.264-6.714 4.228zm17.893 10.779l-7.767 1.814-1.814 7.748 7.748-1.723 1.833-7.84zm37.253-5.444l-8.02 1.397-2.505-3.538-5.698 1.088 3.34 4.737 4.263-.744 4.682 6.659L64 45.292l-5.516-7.948zm-44.947-12.14l2.504 3.539 5.734-.998-3.339-4.736-4.264.744-4.718-6.66L0 18.745l5.534 7.857 8.003-1.398z" transform="translate(-372 -28) translate(372 28)"/>
                <path fill="#E94E1B" d="M36.364 23.991L32.737 29.091 29.091 23.991 32.737 18.909z" transform="translate(-372 -28) translate(372 28)"/>
            </g>
        </g>
    </g>
</svg>
