<svg xmlns="http://www.w3.org/2000/svg" width="170" height="170" viewBox="0 0 170 170">
    <g fill="none" fill-rule="evenodd">
        <g>
            <g>
                <g>
                    <g transform="translate(-475 -1250) translate(370 980) translate(0 270) translate(105)">
                        <circle cx="88" cy="85" r="75.5" fill="#FFF" fill-rule="nonzero" stroke="#B4BDCA" stroke-width="3"/>
                        <path fill="#F1592A" d="M170 132.028c-.015 8.28-6.738 14.982-15.018 14.972-8.281-.01-14.987-6.728-14.982-15.01.005-8.28 6.72-14.99 15-14.99 3.983 0 7.802 1.584 10.616 4.403 2.814 2.82 4.391 6.642 4.384 10.625z"/>
                        <text fill="#FFF" fill-rule="nonzero" font-family="Rubik-Medium, Rubik" font-size="24.903" font-weight="400">
                            <tspan x="148.222" y="140">1</tspan>
                        </text>
                        <path fill="#000" d="M109 75.672l-.167-.81-1.128-3.82-.125-.624h-.669c-4.317-.25-8.641-.478-12.972-.685L82.7 52.35l-.208-.25L65.78 51H43.115l-16.711 1.1-.209.25-11.238 17.445c-4.331.208-8.655.436-12.973.685h-.689v.561L.167 74.78 0 75.672l.815.27 10.235 3.406c-1.357 1.807-2.423 7.81-3.321 9.824l1.525 17.175h3.28v5.337c0 3.82 3.114 6.916 6.956 6.916 3.841 0 6.956-3.096 6.956-6.916v-5.337h55.523v5.337c-.141 2.565 1.155 4.998 3.369 6.322 2.213 1.325 4.982 1.325 7.196 0 2.214-1.324 3.51-3.757 3.368-6.322v-5.337h3.823l1.546-17.155c-.92-2.076-1.964-8.016-3.321-9.823l10.214-3.406.836-.29zM30.248 93.886l-1.17-.79-.397-.415c-.785 1.207-2.276 1.756-3.662 1.348-1.386-.408-2.336-1.676-2.333-3.113-.003-.472.097-.94.292-1.37l-11.113-2.7 16.983.54h.397l.104.415 1.107 5.067-.208 1.018zM17.923 72.433c.008-.172.066-.338.167-.478h-.167L28.2 54.095c0-.769 11.636-1.392 26.008-1.392 14.371 0 25.652.602 25.965 1.37l10.862 17.923h-.167c.101.14.159.306.167.478 0 2.97-16.356 5.379-36.556 5.379-20.2 0-36.556-2.45-36.556-5.42zm68.078 17.175c.212.426.32.895.313 1.37.003 1.438-.947 2.705-2.333 3.113-1.386.408-2.877-.14-3.662-1.347l-.397.415-1.17.727-.208-1.06 1.107-5.067v-.415h.397l17.003-.54-11.05 2.804zM154.17 69L154.149 74.275 165.419 84.991 154.043 96.393 154 102 171 84.991zM127.615 110.775c-1.007-1.042-1.86-2.22-2.537-3.5-.09-.2-.283-.336-.503-.354l-3.52-.292-2.579-.229-3.186-.27-4.527-.376c-.336-.03-.62-.261-.713-.583l-.189-.646-1.11-3.23-.692-2.375c-.23-.77-.461-1.542-.67-2.333-.21-.792-.462-1.605-.713-2.396l-.65-2.271c-.057-.206-.02-.426.101-.603.121-.176.314-.291.528-.314h1.236l2.998-.23 3.248-.208 3.48-.25 3.584-.229 3.542-.25 3.48-.25 3.164-.208 3.081-.209 2.6-.166c.132-.007.244-.1.272-.23 0-.187.126-.374.21-.583.419-1.083.817-2.083 1.236-3.27.085-.237.295-.406.545-.438l1.111-.146 2.578-.313c.236-.059.486-.004.675.147.19.152.297.383.29.624.02.375.02.75 0 1.125.01.197-.059.39-.193.536-.134.145-.322.23-.52.235l-.587.104-2.956.417c-.155.007-.285.12-.314.27l-.943 2.605c-.336 1.021-.67 2.084-1.027 3.063-.482 1.52-.985 3.042-1.488 4.563-.503 1.52-.902 2.708-1.342 4.167-.44 1.458-.964 3.042-1.488 4.563-.325.816-.325 1.725 0 2.542.32.712.775 1.356 1.341 1.896.167.189.423.276.671.229.374-.073.758-.073 1.132 0 1.216.343 2.088 1.403 2.185 2.656.097 1.253-.602 2.433-1.75 2.957-1.15.524-2.505.28-3.398-.61-.892-.89-1.131-2.238-.6-3.378.105-.208 0-.23-.126-.23h-14.064c-.23 0-.23 0-.147.25.518 1.13.284 2.458-.59 3.345-.872.886-2.204 1.147-3.35.656-.78-.327-1.383-.967-1.663-1.76-.28-.794-.208-1.668.196-2.407.495-1.053 1.576-1.71 2.745-1.667h11.906v-.146m1.76-15.75c.125.02.253.02.377 0 .073-.026.134-.078.168-.147.147-.625.273-1.229.42-1.854.146-.625.293-1.25.46-1.875 0-.23 0-.271-.21-.25l-2.242.146-2.39.166c-.064 0-.126.027-.17.075-.044.047-.066.111-.06.175 0 .542-.126 1.084-.21 1.646-.083.563-.125 1.125-.209 1.667-.084.542 0 .333.314.333H129.375m-5.952.021c.125 0 .188 0 .21-.187.125-1.146.272-2.292.397-3.438 0-.146 0-.208-.167-.188l-1.887.126-1.949.125h-1.048c-.168 0-.23 0-.23.25 0 .708 0 1.416.104 2.083v1.02c-.007.053.01.104.048.141.037.037.09.054.14.047h4.34m12.576-4.646l-3.123.209h-.252c-.356 0-.356 0-.44.395-.147.75-.335 1.5-.524 2.25s-.23.98-.335 1.46c0 0 0 .145.104.145h3.396c.146.02.294.02.44 0 0 0 .147 0 .189-.146.335-1.02.65-2.083.985-3.042.146-.396.272-.792.419-1.25h-.692m-7.88 10.126c.075.012.152-.009.212-.056.06-.048.097-.118.102-.194.167-.75.335-1.5.524-2.271.188-.771.21-.938.335-1.417 0-.125 0-.167-.147-.167h-4.024c-.067-.005-.133.016-.184.059-.051.043-.083.104-.088.17 0 .5-.105 1-.168 1.5-.063.5-.147 1.25-.23 1.876 0 .25 0 .27.209.292h3.458m4.926.166c.054.022.115.015.162-.02.047-.033.073-.089.068-.146l.755-1.98c.168-.541.356-1.104.545-1.667 0-.208 0-.27-.21-.25h-3.311c-.126 0-.189 0-.21.167-.188.792-.377 1.563-.545 2.334-.167.77-.23.958-.335 1.437-.105.48 0 .25.21.271h2.766m-13.917-4.167c-.147 0-.23 0-.21.208l.294 2.75v.605c0 .208 0 .146.167.167h3.417c.188 0 .251 0 .272-.23.126-1.104.273-2.229.42-3.354 0-.146 0-.188-.19-.188h-4.024m-2.096-1.479c.168 0 .231 0 .231-.23 0-1.02 0-2.083-.126-3.041 0-.167-.125-.167-.23-.167l-2.096.125-1.95.146h-.083c-.315 0-.315 0-.252.354.147.896.314 1.771.482 2.667 0 .146 0 .188.21.188h3.752m9.997 12.75c.614.957 1.386 1.802 2.285 2.501.41.324.922.494 1.446.48h1.698c.004-.07.004-.14 0-.21-.523-.698-.887-1.501-1.069-2.354 0-.229 0-.479-.105-.729-.104-.25 0-.166-.188-.166l-4.004-.167h-.482c.189.27.357.542.545.792m-9.809-7.793c.252 0 .272 0 .272-.25 0-1.02 0-2.083-.167-3.062 0-.125 0-.167-.168-.167h-3.689c-.21 0-.23 0-.188.25l.377 2.083c0 .292 0 .584.167.876.03.068.094.116.168.125H117.45m9.935 5.333c.147-.687.314-1.375.482-2.083.168-.709.168-.771.273-1.167.104-.396 0-.208-.168-.208h-3.333c-.167 0-.251 0-.272.229 0 1-.23 2.083-.357 3 0 .125 0 .188.147.208l3.102.25.126-.125m4.38.167l1.028-3.042c0-.166 0-.208-.168-.208l-2.6-.104c-.334 0-.355 0-.44.333-.23 1.021-.46 2.084-.712 3.063 0 .166.063.25.189.25l2.263.187c.294 0 .294 0 .399-.312m-12.346-.875c0 .125 0 .166.189.187l1.32.125 1.342.104c.168 0 .21 0 .23-.208.126-.958.231-1.938.357-2.917 0-.166 0-.229-.21-.229h-2.871c-.461 0-.461 0-.44.458v2.563m-4.8-3.23c-.252 0-.273 0-.23.25.041.25.167.96.272 1.46.104.5.146.728.188 1.103.042.375 0 .209.252.209l2.263.187h.294c.23 0 .272 0 .251-.229 0-.896 0-1.813-.104-2.73 0 0 0-.145-.168-.145h-3.018m-6.288-7.626c0 .417.23.834.356 1.25 0 0 0 .167.189.167h2.599c.188 0 .188-.104.167-.23l-.188-1.04c-.105-.543-.21-1.084-.294-1.626 0-.188-.105-.27-.314-.25l-2.725.208h-.23c.14.528.286 1.028.44 1.5m3.961 6.022c.189 0 .21 0 .189-.209l-.378-2.083c0-.25 0-.5-.146-.771-.147-.27 0-.146-.189-.146h-2.347c-.231 0-.252 0-.168.25l.754 2.605c.036.088.116.151.21.166h2.075m24.796 13.96c0-.404-.165-.79-.458-1.07-.293-.278-.688-.427-1.093-.41-.578-.068-1.144.2-1.454.69-.31.489-.31 1.111 0 1.6.31.49.876.758 1.454.69.398 0 .78-.159 1.06-.44.28-.283.433-.664.428-1.06m-19.912 0c-.011-.824-.68-1.49-1.51-1.5-.823.021-1.486.68-1.508 1.5.022.815.688 1.468 1.509 1.479.398.005.782-.148 1.066-.426.283-.278.443-.657.443-1.053m-6.456-12.501c-.188 0-.21 0-.167.187l.44 1.521.293.98c.028.085.1.148.189.166l1.698.146s.146 0 .125-.146l-.167-1.792c0-.25 0-.479-.147-.729s0-.292-.315-.292h-1.823M132.012 56.13c-2.884-1.196-4.653-2.834-3.642-6.152.119-.725-.125-1.462-.653-1.974-3.236-2.254-6.611-4.302-10.106-6.131-2.8-1.593-6.044-2.234-9.242-1.827-1.782.207-3.575.305-5.369.294v-2.331c4.758-.483 9.39-1.302 13.895.86.631.392 1.363.589 2.106.568 3.284-.672 6.526-1.596 9.81-2.268 1.07-.288 2.205-.206 3.222.231 2.948 1.785 5.748 3.864 8.632 5.859-.21.672-.4 1.239-.632 1.89 2.337 1.616 4.527 3.317 6.885 4.745 2.973 1.601 5.23 4.264 6.316 7.455 1.021 2.707 1.021 5.692 0 8.399-.758 1.953-1.832 2.898-3.937 1.764 2.948-5.376 3.032-7.58.716-10.268l-3.958.755c.126-.147-.21.126-.442.483-1.242 1.932-2.506 2.1-4.422.63-2.379-1.868-5.052-3.38-7.663-5.081-.632.735-1.18 1.386-1.748 2.1m5.074-2.646l6.316 4.2 2.864-3.108-6.59-4.557c-.821 1.092-1.58 2.1-2.484 3.38M103.383 42c1.831 2.713 3.33 5.625 4.466 8.68.14.435.183.895.128 1.349-.17 1.679-1.306 3.115-2.928 3.7-1.621.583-3.442.21-4.687-.96-1.299-1.112-1.719-2.912-1.042-4.464 1.212-2.699 2.595-5.315 4.063-8.305m-.128 12.313c.823.209 1.698-.01 2.316-.58.618-.57.892-1.41.726-2.223-.476-1.437-1.088-2.828-1.83-4.153 0-.166-.468-.187-.723-.29 0 .248-.234.518-.191.747.122.402.286.792.489 1.162.936 1.848 1.68 3.676-.787 5.316"/>
                    </g>
                </g>
            </g>
        </g>
    </g>
</svg>
