<svg xmlns="http://www.w3.org/2000/svg" width="170" height="170" viewBox="0 0 170 170"><g fill="none" fill-rule="evenodd"><circle cx="85" cy="85" r="75.5" fill="#FFF" fill-rule="nonzero" stroke="#B4BDCA" stroke-width="3"/><path fill="#000" d="M110.563 91.3v.107a21.492 21.492 0 0 1 17.187 9.417c6.08 8.837 3.394 19.862-6.08 25.739-8.98 5.684-22.578 4.29-29.646-3.968-8.593-10.017-4.683-24.281 8.185-29.579a25.498 25.498 0 0 1 10.354-1.716zm7.756-47.703c2 2.324 2.08 5.734.193 8.15-1.633 2.596-3.502 5.063-5.263 7.594a177148.927 177148.927 0 0 1-44.49 64.347 27.742 27.742 0 0 1-2.9 3.347 7.918 7.918 0 0 1-8.701 1.694 6.736 6.736 0 0 1-4.92-6.606 7.308 7.308 0 0 1 1.353-4.033c4.62-6.67 9.281-13.363 13.9-20.055 11.8-16.93 23.53-33.847 35.188-50.749a35.013 35.013 0 0 1 3.738-4.461c3.738-3.754 9.668-1.888 11.902.772zm-13.148 63.06a5.64 5.64 0 0 0-1.59 5.449 5.37 5.37 0 0 0 4.942 4.29 5.568 5.568 0 0 0 6.144-3.24c.252-.699.453-1.416.601-2.144v-.064a6.041 6.041 0 0 0-1.697-4.119 6.194 6.194 0 0 0-8.4-.171zM82.314 50.805a18.46 18.46 0 0 1 2.148 10.725l.022-.065a18.49 18.49 0 0 1-10.248 14.328 23.658 23.658 0 0 1-27.261-3.153 17.874 17.874 0 0 1-5.974-13.507 17.88 17.88 0 0 1 6.232-13.39c10.741-9.545 28.4-6.735 35.08 5.062zm-24.748 5.662a5.805 5.805 0 0 0 .215 6.006 6.188 6.188 0 0 0 4.898 2.51 6.19 6.19 0 0 0 4.962-2.381 6.239 6.239 0 0 0 1.01-3.217c0-.558-.108-1.137-.236-1.695a5.455 5.455 0 0 0-4.963-4.01 5.758 5.758 0 0 0-5.886 2.787z"/><path fill="#F1592A" d="M167 132.028c-.015 8.28-6.738 14.982-15.018 14.972-8.281-.01-14.987-6.728-14.982-15.01.005-8.28 6.72-14.99 15-14.99a15 15 0 0 1 15 15.028z"/><text fill="#FFF" fill-rule="nonzero" font-family="Rubik-Medium, Rubik" font-size="24.903" font-weight="400">
                            <tspan x="144.143" y="140">3</tspan>
                        </text></g></svg>