<svg xmlns="http://www.w3.org/2000/svg" width="170" height="170" viewBox="0 0 170 170">
    <defs>
        <linearGradient id="6edwdhp7ra" x1="3051.308%" x2="3151.262%" y1="-5837.655%" y2="-5837.655%">
            <stop offset="62%" stop-color="#FFF"/>
            <stop offset="83%" stop-color="#D0D0D0"/>
        </linearGradient>
    </defs>
    <g fill="none" fill-rule="evenodd">
        <g>
            <g>
                <g>
                    <g transform="translate(-875 -1250) translate(370 980) translate(400 270) translate(105)">
                        <circle cx="84" cy="85" r="75.5" fill="#FFF" fill-rule="nonzero" stroke="#B4BDCA" stroke-width="3"/>
                        <path fill="#F1592A" d="M166 132.028c-.015 8.28-6.738 14.982-15.018 14.972-8.281-.01-14.987-6.728-14.982-15.01.005-8.28 6.72-14.99 15-14.99 3.983 0 7.802 1.584 10.616 4.403 2.814 2.82 4.391 6.642 4.384 10.625z"/>
                        <text fill="#FFF" fill-rule="nonzero" font-family="Rubik-Medium, Rubik" font-size="24.903" font-weight="400">
                            <tspan x="143.28" y="140">2</tspan>
                        </text>
                        <path fill="#000" d="M150.17 69L150.149 74.275 161.419 84.991 150.043 96.393 150 102 167 84.991z"/>
                        <g>
                            <path fill-rule="nonzero" d="M92.589 53.722c7.768 4.575 12.015 13.38 10.759 22.308-1.257 8.927-7.769 16.218-16.498 18.471-8.73 2.253-17.957-.976-23.377-8.181-5.42-7.205-5.964-16.965-1.379-24.728 6.253-10.587 19.9-14.109 30.495-7.87z" transform="translate(29 38)"/>
                            <path fill="url(#6edwdhp7ra)" fill-rule="nonzero" d="M40.713 53.722c7.77 4.575 12.016 13.38 10.76 22.308-1.257 8.927-7.77 16.218-16.499 18.471-8.73 2.253-17.956-.976-23.376-8.181-5.42-7.205-5.964-16.965-1.38-24.728 6.254-10.587 19.9-14.109 30.495-7.87z" transform="translate(29 38)"/>
                            <path stroke="#B4BDCA" stroke-dasharray="2.02" stroke-linecap="round" d="M92.67 53.722c10.588 6.248 14.107 19.896 7.86 30.486-6.246 10.59-19.893 14.111-30.484 7.867-10.59-6.245-14.114-19.891-7.872-30.483 6.253-10.587 19.9-14.109 30.495-7.87zM40.713 53.722c7.77 4.575 12.016 13.38 10.76 22.308-1.257 8.927-7.77 16.218-16.499 18.471-8.73 2.253-17.956-.976-23.376-8.181-5.42-7.205-5.964-16.965-1.38-24.728 6.254-10.587 19.9-14.109 30.495-7.87z" transform="translate(29 38)"/>
                            <path fill="#F1592A" d="M52.658 23.308c.009 9.437-5.67 17.95-14.386 21.566-8.717 3.617-18.754 1.626-25.43-5.044-6.675-6.67-8.675-16.705-5.065-25.425C11.387 5.685 19.894 0 29.33 0c6.185-.005 12.118 2.448 16.494 6.82 4.375 4.371 6.833 10.303 6.833 16.488z" transform="translate(29 38)"/>
                            <path fill="#FFF" fill-rule="nonzero" d="M12.005 27.624L12.005 29.351 14.013 29.351 14.013 27.624 14.796 27.624 14.796 31.92 14.013 31.92 14.013 29.913 12.005 29.913 12.005 31.92 11.162 31.92 11.162 27.624zM19.192 30.896c-.022.341-.022.683 0 1.024h-.702v-.542c-.312.416-.806.655-1.325.643-.342.022-.678-.1-.926-.336-.248-.237-.385-.566-.38-.91 0-1.023.924-1.605 2.59-1.585v-.1c.034-.27-.06-.54-.252-.732-.192-.192-.461-.285-.731-.252-.398-.007-.79.105-1.124.321l-.18-.522c.432-.25.924-.382 1.424-.381 1.305 0 1.627.903 1.627 1.746l-.02 1.626zm-.742-1.164c-.864 0-1.827.12-1.827.964-.018.198.051.394.19.537.14.143.334.218.533.205.476.025.911-.27 1.064-.722.008-.08.008-.161 0-.241l.04-.743zM25.356 31.78c-.386.168-.804.25-1.225.24-.59.044-1.168-.173-1.582-.595-.414-.422-.62-1.004-.566-1.593-.029-.62.205-1.225.644-1.664.44-.44 1.044-.673 1.665-.644.375-.009.747.074 1.084.24l-.16.603c-.282-.137-.592-.205-.904-.201-.898 0-1.626.728-1.626 1.626 0 .898.728 1.626 1.626 1.626.334.001.663-.074.963-.22l.08.582zM27.062 27.624v1.867h.16l1.607-1.867h.963l-1.867 2.008c.683 0 1.105.542 1.446 1.325.131.357.285.706.462 1.043h-.824c-.16-.281-.294-.577-.401-.883-.185-.624-.775-1.04-1.425-1.004h-.141V32h-.783v-4.376h.803zM31.238 27.624v3.533c.28-.522.421-.823.702-1.325l1.346-2.208h.923v4.296h-.743v-1.827-1.766c-.28.562-.462.903-.702 1.345-.241.441-.904 1.485-1.346 2.248h-.923v-4.296h.743zM38.826 27.624v3.714h.442v2.008h-.622V31.98h-2.971v1.366h-.623v-2.008h.2c.181-.274.323-.571.423-.883.18-.558.268-1.14.26-1.727v-1.104h2.891zm-2.188 1.285c.003.55-.072 1.097-.22 1.626-.095.27-.209.53-.342.783h2.008v-3.112h-1.426l-.02.703zM40.974 27.624v1.867h.181l1.626-1.867h.944l-1.867 2.008c.702 0 1.104.542 1.445 1.325.131.357.286.706.462 1.043h-.823c-.16-.281-.294-.577-.402-.883-.177-.621-.76-1.038-1.405-1.004h-.16V32h-.763v-4.376h.762zM44.809 27.624l.943 2.53c.1.3.221.622.282.883 0-.261.16-.582.28-.904l.844-2.509H48l-1.185 3.072c-.29 1.004-.813 1.925-1.525 2.69-.273.236-.595.408-.944.502l-.2-.663c.25-.081.482-.21.682-.381.283-.234.51-.53.662-.864.012-.06.012-.12 0-.18.014-.073.014-.148 0-.221l-1.585-4.015.903.06zM15.438 15.98v.602c1.719 0 3.112 1.394 3.112 3.112 0 1.719-1.393 3.112-3.112 3.112v.622h-1.445v-.622c-.804.007-1.575-.32-2.13-.901-.556-.582-.846-1.368-.801-2.17-.027-.81.269-1.597.822-2.188.554-.591 1.32-.938 2.129-.965v-.602h1.425zm-1.445 1.666c-.622 0-1.385.603-1.385 2.008s.763 2.008 1.385 2.008v-4.016zm1.445 4.016c.603 0 1.365-.583 1.365-2.008s-.722-2.008-1.365-2.008v4.016zM20.819 16.321v5.12c.361-.803.823-1.707 1.244-2.45l1.466-2.69h1.586v6.846h-1.426V21.14c-.013-.966.027-1.93.12-2.891-.339.832-.727 1.643-1.164 2.429l-1.405 2.47h-1.746V16.32h1.325zM27.945 16.321L27.945 21.902 29.632 21.902 29.632 16.321 31.238 16.321 31.238 21.902 32.924 21.902 32.924 16.321 34.45 16.321 34.45 23.167 26.42 23.167 26.42 16.321zM37.26 16.321v2.811h.141l1.867-2.81h1.887l-2.389 3.05c.786.218 1.388.851 1.566 1.647.212.733.474 1.45.783 2.148h-1.666c-.22-.485-.394-.989-.522-1.505-.241-.763-.562-1.346-1.385-1.346h-.282v2.851h-1.525v-6.846h1.525zM43.584 21.38l-.502 1.747h-1.586l2.008-6.846h2.008l2.148 6.846h-1.687l-.522-1.746h-1.867zm1.727-1.164l-.422-1.445c-.12-.422-.24-.924-.341-1.325-.1.401-.2.923-.321 1.325l-.402 1.445h1.486z" transform="translate(29 38)"/>
                            <path fill="#F1592A" d="M103.51 23.308c.008 9.439-5.673 17.952-14.391 21.568-8.72 3.616-18.758 1.621-25.432-5.053-6.674-6.674-8.669-16.713-5.053-25.432C62.25 5.673 70.764-.009 80.202 0c6.182 0 12.11 2.456 16.481 6.827 4.371 4.37 6.827 10.3 6.827 16.48z" transform="translate(29 38)"/>
                            <path fill="#FFF" fill-rule="nonzero" d="M62.837 27.624L62.837 29.351 64.844 29.351 64.844 27.624 65.627 27.624 65.627 31.92 64.844 31.92 64.844 29.913 62.837 29.913 62.837 31.92 62.054 31.92 62.054 27.624zM69.984 30.896c-.023.341-.023.683 0 1.024h-.603v-.542c-.305.413-.791.652-1.304.643-.346.028-.687-.091-.94-.328-.252-.238-.392-.57-.385-.917 0-1.024.923-1.606 2.59-1.586v-.1c.032-.27-.06-.54-.253-.732-.192-.192-.462-.285-.731-.252-.399-.007-.79.105-1.125.321l-.18-.522c.433-.25.925-.382 1.425-.381.466-.043.926.132 1.248.473.321.34.468.81.398 1.273l-.14 1.626zm-.763-1.164c-.863 0-1.827.12-1.827.964-.018.198.052.394.19.537.14.143.334.218.533.205.476.025.911-.27 1.064-.722.018-.08.018-.162 0-.241l.04-.743zM76.207 31.78c-.393.167-.817.249-1.245.24-.589.044-1.167-.173-1.581-.595-.414-.422-.621-1.004-.567-1.593-.029-.624.208-1.232.651-1.672.444-.44 1.054-.671 1.678-.636.375-.006.747.077 1.084.24l-.18.583c-.284-.13-.592-.198-.904-.201-.898 0-1.626.728-1.626 1.626 0 .898.728 1.626 1.626 1.626.334.001.664-.074.964-.22l.1.602zM77.893 27.624v1.867h.181l1.626-1.867h.944l-1.867 2.008c.702 0 1.104.542 1.445 1.325.131.357.286.706.462 1.043h-.823c-.16-.281-.294-.577-.402-.883-.177-.621-.76-1.038-1.405-1.004h-.16V32h-.763v-4.376h.762zM82.11 27.624v3.533c.26-.522.4-.823.702-1.325l1.345-2.208h.903v4.296h-.742v-1.827-1.766c-.281.562-.462.903-.723 1.345L82.25 31.92h-.823v-4.296h.682zM89.658 27.624v3.714h.441v2.008h-.642V31.98h-2.991v1.366h-.603v-2.008h.362c.188-.27.33-.568.421-.883.181-.558.27-1.14.261-1.727v-1.104h2.75zm-2.188 1.285c.002.55-.072 1.097-.221 1.626-.086.272-.2.535-.342.783h2.008v-3.112h-1.466l.02.703zM91.806 27.624v1.867h.2l1.607-1.867h.943l-1.867 2.008c.703 0 1.124.542 1.466 1.325.115.36.263.71.441 1.043h-.823c-.1-.18-.24-.521-.401-.883-.177-.621-.76-1.038-1.406-1.004h-.16V32h-.763v-4.376h.763zM95.66 27.624l.924 2.53c.115.287.209.582.28.883l.282-.904.863-2.509h.823l-1.184 3.072c-.282.994-.783 1.913-1.466 2.69-.279.238-.608.41-.963.502l-.201-.663c.253-.076.486-.206.682-.381.29-.228.518-.525.663-.864.012-.06.012-.12 0-.18.014-.073.014-.148 0-.221l-1.586-4.015.883.06zM66.27 15.98v.602c1.718 0 3.111 1.394 3.111 3.112 0 1.719-1.393 3.112-3.111 3.112v.622h-1.446v-.622c-.804.007-1.575-.32-2.13-.901-.555-.582-.845-1.368-.8-2.17-.028-.81.268-1.597.822-2.188.553-.591 1.319-.938 2.128-.965v-.602h1.426zm-1.446 1.666c-.622 0-1.385.603-1.385 2.008s.763 2.008 1.385 2.008v-4.016zm1.446 4.016c.602 0 1.385-.583 1.385-2.008s-.743-2.008-1.385-2.008v4.016zM71.65 16.321v5.12c.361-.803.823-1.707 1.225-2.45l1.465-2.69h1.586v6.846h-1.425V21.14c-.014-.966.026-1.93.12-2.891-.331.836-.72 1.647-1.164 2.429l-1.385 2.47h-1.767V16.32h1.345zM78.777 16.321L78.777 21.902 80.483 21.902 80.483 16.321 81.989 16.321 81.989 21.902 83.695 21.902 83.695 16.321 85.201 16.321 85.201 23.167 77.171 23.167 77.171 16.321zM88.072 16.321v2.811h.14l1.887-2.85h1.888l-2.39 3.05c.789.214 1.393.849 1.566 1.647.213.733.474 1.45.783 2.148H90.28c-.21-.489-.384-.992-.522-1.506-.24-.762-.542-1.345-1.385-1.345h-.301v2.851h-1.526v-6.806h1.526zM94.416 21.38l-.482 1.747h-1.606l2.007-6.846h2.008l2.148 6.846h-1.686l-.522-1.746h-1.867zm1.746-1.164l-.421-1.445c-.14-.422-.261-.924-.362-1.325-.1.401-.2.923-.3 1.325l-.422 1.445h1.505z" transform="translate(29 38)"/>
                            <path fill="#F1592A" d="M42.982 63.479c5.058 7.962 4.819 18.187-.606 25.904-5.425 7.716-14.966 11.402-24.17 9.337C9.002 96.655 1.95 89.246.342 79.95c-1.608-9.294 2.544-18.642 10.52-23.68 10.86-6.873 25.237-3.647 32.12 7.208z" transform="translate(29 38)"/>
                            <path fill="#FFF" fill-rule="nonzero" d="M10.982 88.875L11.905 90.34 13.632 89.256 12.688 87.791 13.35 87.369 15.659 91.003 14.997 91.424 13.953 89.778 12.246 90.882 13.29 92.528 12.628 92.93 10.319 89.296zM18.75 87.83c.182.295.384.577.603.844l-.582.361-.361-.421c-.034.515-.32.98-.763 1.244-.276.203-.623.281-.958.216-.336-.065-.629-.267-.809-.557-.562-.883 0-1.847 1.325-2.73-.114-.244-.333-.423-.595-.485-.262-.063-.538-.003-.75.164-.344.209-.616.517-.783.883l-.442-.341c.233-.444.58-.818 1.004-1.085.373-.286.857-.384 1.311-.267.455.118.83.439 1.018.87l.783 1.305zm-1.264-.582c-.723.442-1.465 1.085-1.024 1.787.09.182.257.315.455.362.198.046.407.002.569-.12.41-.231.617-.708.502-1.165-.017-.086-.051-.168-.1-.241l-.402-.623zM24.472 85.24c-.239.347-.546.64-.903.864-.475.354-1.082.48-1.66.345-.576-.135-1.064-.519-1.331-1.047-.358-.508-.483-1.143-.345-1.747.137-.605.526-1.123 1.067-1.425.313-.212.67-.35 1.044-.402l.16.602c-.31.033-.606.143-.862.322-.665.508-.835 1.437-.394 2.148.441.711 1.35.971 2.1.602.281-.174.521-.407.703-.683l.421.422zM23.69 80.824l.983 1.566h.16l.362-2.429.803-.522-.542 2.65c.677-.299 1.467-.164 2.008.341.24.16.582.442.943.643l-.702.421c-.285-.146-.554-.321-.804-.522-.514-.398-1.232-.398-1.746 0h-.12l1.023 1.606-.662.422-2.309-3.654.602-.522zM27.223 78.556l.963 1.546c.362.562.583.943.884 1.485v-4.095l.763-.482 2.188 3.553-.623.402-.983-1.546c-.382-.582-.562-.903-.904-1.526 0 .623.1 1.004.12 1.526.02.522 0 1.726 0 2.61l-.762.482-2.309-3.634.663-.321zM33.607 74.54l2.007 3.132.382-.22.983 1.666-.501.321-.763-1.124-2.53 1.586.703 1.184-.522.321-1.064-1.606.301-.22c.017-.325-.017-.65-.1-.964-.157-.563-.401-1.098-.723-1.586l-.602-.944 2.429-1.545zm-1.145 2.27c.297.46.527.96.683 1.485.074.276.121.558.14.843l1.667-1.064-1.707-2.65-1.204.763.421.622zM35.434 73.356l1.003 1.586.161-.1.361-2.45.803-.501-.502 2.65c.678-.294 1.465-.16 2.008.34.302.234.617.448.944.643l-.683.442c-.284-.158-.56-.332-.823-.522-.5-.418-1.227-.418-1.727 0h-.14l1.024 1.586-.663.422-2.308-3.634.542-.462zM38.666 71.308l2.168 1.647.703.582c-.098-.297-.178-.598-.241-.904l-.643-2.59.703-.441.642 3.212c.31.994.379 2.046.201 3.072-.101.354-.287.677-.542.943l-.502-.461c.164-.202.286-.434.362-.683.111-.35.146-.72.1-1.084.008-.067.008-.134 0-.2-.04-.062-.095-.11-.16-.141l-3.454-2.49.663-.462zM7.629 77.23l.321.503c.682-.441 1.517-.579 2.305-.381.787.198 1.458.714 1.85 1.425.469.662.646 1.487.49 2.283-.155.797-.63 1.495-1.312 1.932l.32.522-1.224.783-.32-.542c-.663.415-1.465.543-2.222.353-.758-.19-1.405-.68-1.794-1.356-.46-.67-.635-1.497-.485-2.296.151-.799.615-1.505 1.288-1.96l-.321-.502 1.104-.763zm-.321 2.189c-.482.381-.843 1.245 0 2.47.385.856 1.367 1.268 2.248.943l-2.248-3.413zm3.392 2.65c.482-.381.864-1.225 0-2.45-.863-1.224-1.666-1.264-2.248-.983L10.7 82.07zM12.327 74.54l1.104 1.707c.582.924 1.144 1.867 1.586 2.67-.12-.883-.221-1.887-.261-2.71l-.201-3.072 1.345-.863 3.674 5.802-1.205.763-1.084-1.707c-.562-.903-1.044-1.706-1.465-2.51.174.888.281 1.788.321 2.691l.16 2.83-1.505.944-3.634-5.721 1.165-.823zM18.349 70.766L21.341 75.484 22.786 74.581 19.795 69.863 21.059 69.06 24.051 73.778 25.496 72.854 22.505 68.137 23.77 67.333 27.444 73.115 20.738 77.371 17.064 71.59zM26.199 65.788l1.546 2.409h.12v-3.433l1.606-1.004-.24 3.794c.776-.242 1.623-.024 2.187.562.582.497 1.192.96 1.827 1.386l-1.405.903c-.442-.3-.858-.636-1.245-1.004-.622-.522-1.204-.843-1.907-.401l-.24.16 1.525 2.43-1.285.803-3.674-5.782 1.185-.823zM34.29 66.691l.521 1.747-1.345.863-2.007-6.906 1.726-1.084 5.46 4.637-1.405.904-1.385-1.205-1.566 1.044zm.842-2.007l-1.144-1.004c-.321-.261-.682-.643-.984-.924.12.382.322.884.442 1.285l.442 1.446 1.244-.803z" transform="translate(29 38)"/>
                        </g>
                    </g>
                </g>
            </g>
        </g>
    </g>
</svg>
