<svg xmlns="http://www.w3.org/2000/svg" width="170" height="170" viewBox="0 0 170 170"><g fill="none" fill-rule="evenodd"><circle cx="88" cy="85" r="75.5" fill="#FFF" fill-rule="nonzero" stroke="#B4BDCA" stroke-width="3"/><path fill="#F1592A" d="M170 132.028c-.015 8.28-6.738 14.982-15.018 14.972-8.281-.01-14.987-6.728-14.982-15.01.005-8.28 6.72-14.99 15-14.99a15 15 0 0 1 15 15.028z"/><text fill="#FFF" fill-rule="nonzero" font-family="Rubik-Medium, Rubik" font-size="24.903" font-weight="400">
                            <tspan x="148.222" y="140">1</tspan>
                        </text><path fill="#000" d="m109 75.672-.167-.81-1.128-3.82-.125-.624h-.669c-4.317-.25-8.641-.478-12.972-.685L82.7 52.35l-.208-.25L65.78 51H43.115l-16.711 1.1-.209.25-11.238 17.445c-4.331.208-8.655.436-12.973.685h-.689v.561L.167 74.78 0 75.672l.815.27 10.235 3.406c-1.357 1.807-2.423 7.81-3.321 9.824l1.525 17.175h3.28v5.337c0 3.82 3.114 6.916 6.956 6.916 3.841 0 6.956-3.096 6.956-6.916v-5.337h55.523v5.337a6.925 6.925 0 0 0 3.369 6.322 7.01 7.01 0 0 0 7.196 0 6.922 6.922 0 0 0 3.368-6.322v-5.337h3.823l1.546-17.155c-.92-2.076-1.964-8.016-3.321-9.823l10.214-3.406.836-.29zM30.248 93.886l-1.17-.79-.397-.415a3.269 3.269 0 0 1-3.662 1.348 3.242 3.242 0 0 1-2.333-3.113 3.27 3.27 0 0 1 .292-1.37l-11.113-2.7 16.983.54h.397l.104.415 1.107 5.067-.208 1.018zM17.923 72.433a.887.887 0 0 1 .167-.478h-.167L28.2 54.095c0-.769 11.636-1.392 26.008-1.392 14.371 0 25.652.602 25.965 1.37l10.862 17.923h-.167c.101.14.159.306.167.478 0 2.97-16.356 5.379-36.556 5.379-20.2 0-36.556-2.45-36.556-5.42zm68.078 17.175c.212.426.32.895.313 1.37a3.241 3.241 0 0 1-2.333 3.113 3.268 3.268 0 0 1-3.662-1.347l-.397.415-1.17.727-.208-1.06 1.107-5.067v-.415h.397l17.003-.54-11.05 2.804zM154.17 69l-.021 5.275 11.27 10.716-11.376 11.402L154 102l17-17.009zm-26.555 41.775a15.385 15.385 0 0 1-2.537-3.5.606.606 0 0 0-.503-.354l-3.52-.292-2.579-.229-3.186-.27-4.527-.376a.816.816 0 0 1-.713-.583l-.189-.646-1.11-3.23-.692-2.375c-.23-.77-.461-1.542-.67-2.333a52.633 52.633 0 0 0-.713-2.396l-.65-2.271a.725.725 0 0 1 .101-.603.736.736 0 0 1 .528-.314h1.236l2.998-.23 3.248-.208 3.48-.25 3.584-.229 3.542-.25 3.48-.25 3.164-.208 3.081-.209 2.6-.166a.293.293 0 0 0 .272-.23c0-.187.126-.374.21-.583.419-1.083.817-2.083 1.236-3.27a.669.669 0 0 1 .545-.438l1.111-.146 2.578-.313a.78.78 0 0 1 .675.147.77.77 0 0 1 .29.624c.02.375.02.75 0 1.125a.734.734 0 0 1-.713.771l-.587.104-2.956.417a.336.336 0 0 0-.314.27l-.943 2.605c-.336 1.021-.67 2.084-1.027 3.063-.482 1.52-.985 3.042-1.488 4.563-.503 1.52-.902 2.708-1.342 4.167-.44 1.458-.964 3.042-1.488 4.563a3.436 3.436 0 0 0 0 2.542c.32.712.775 1.356 1.341 1.896a.718.718 0 0 0 .671.229 2.953 2.953 0 0 1 1.132 0 3.004 3.004 0 0 1 2.185 2.656 2.998 2.998 0 0 1-1.75 2.957 3.034 3.034 0 0 1-3.398-.61 2.987 2.987 0 0 1-.6-3.378c.105-.208 0-.23-.126-.23h-14.064c-.23 0-.23 0-.147.25a2.987 2.987 0 0 1-.59 3.345 3.03 3.03 0 0 1-3.35.656 2.988 2.988 0 0 1-1.663-1.76 2.962 2.962 0 0 1 .196-2.407 2.913 2.913 0 0 1 2.745-1.667h11.906v-.146m1.76-15.75c.125.02.253.02.377 0a.297.297 0 0 0 .168-.147c.147-.625.273-1.229.42-1.854.146-.625.293-1.25.46-1.875 0-.23 0-.271-.21-.25l-2.242.146-2.39.166a.231.231 0 0 0-.23.25c0 .542-.126 1.084-.21 1.646-.083.563-.125 1.125-.209 1.667-.084.542 0 .333.314.333h3.752m-5.952.021c.125 0 .188 0 .21-.187.125-1.146.272-2.292.397-3.438 0-.146 0-.208-.167-.188l-1.887.126-1.949.125h-1.048c-.168 0-.23 0-.23.25 0 .708 0 1.416.104 2.083v1.02a.167.167 0 0 0 .188.188h4.34m12.576-4.646-3.123.209h-.252c-.356 0-.356 0-.44.395-.147.75-.335 1.5-.524 2.25s-.23.98-.335 1.46c0 0 0 .145.104.145h3.396c.146.02.294.02.44 0 0 0 .147 0 .189-.146.335-1.02.65-2.083.985-3.042.146-.396.272-.792.419-1.25h-.692m-7.88 10.126a.271.271 0 0 0 .314-.25c.167-.75.335-1.5.524-2.271.188-.771.21-.938.335-1.417 0-.125 0-.167-.147-.167h-4.024a.255.255 0 0 0-.184.059.247.247 0 0 0-.088.17c0 .5-.105 1-.168 1.5-.063.5-.147 1.25-.23 1.876 0 .25 0 .27.209.292h3.458m4.926.166a.165.165 0 0 0 .162-.02.162.162 0 0 0 .068-.146l.755-1.98c.168-.541.356-1.104.545-1.667 0-.208 0-.27-.21-.25h-3.311c-.126 0-.189 0-.21.167-.188.792-.377 1.563-.545 2.334-.167.77-.23.958-.335 1.437-.105.48 0 .25.21.271h2.766m-13.917-4.167c-.147 0-.23 0-.21.208l.294 2.75v.605c0 .208 0 .146.167.167h3.417c.188 0 .251 0 .272-.23.126-1.104.273-2.229.42-3.354 0-.146 0-.188-.19-.188h-4.024m-2.096-1.479c.168 0 .231 0 .231-.23 0-1.02 0-2.083-.126-3.041 0-.167-.125-.167-.23-.167l-2.096.125-1.95.146h-.083c-.315 0-.315 0-.252.354.147.896.314 1.771.482 2.667 0 .146 0 .188.21.188h3.752m9.997 12.75a10.023 10.023 0 0 0 2.285 2.501c.41.324.922.494 1.446.48h1.698c.004-.07.004-.14 0-.21a6.018 6.018 0 0 1-1.069-2.354c0-.229 0-.479-.105-.729-.104-.25 0-.166-.188-.166l-4.004-.167h-.482c.189.27.357.542.545.792m-9.809-7.793c.252 0 .272 0 .272-.25 0-1.02 0-2.083-.167-3.062 0-.125 0-.167-.168-.167h-3.689c-.21 0-.23 0-.188.25l.377 2.083c0 .292 0 .584.167.876.03.068.094.116.168.125h3.229m9.935 5.333c.147-.687.314-1.375.482-2.083.168-.709.168-.771.273-1.167.104-.396 0-.208-.168-.208h-3.333c-.167 0-.251 0-.272.229 0 1-.23 2.083-.357 3 0 .125 0 .188.147.208l3.102.25.126-.125m4.38.167 1.028-3.042c0-.166 0-.208-.168-.208l-2.6-.104c-.334 0-.355 0-.44.333-.23 1.021-.46 2.084-.712 3.063 0 .166.063.25.189.25l2.263.187c.294 0 .294 0 .399-.312m-12.346-.875c0 .125 0 .166.189.187l1.32.125 1.342.104c.168 0 .21 0 .23-.208.126-.958.231-1.938.357-2.917 0-.166 0-.229-.21-.229h-2.871c-.461 0-.461 0-.44.458v2.563m-4.8-3.23c-.252 0-.273 0-.23.25.041.25.167.96.272 1.46.104.5.146.728.188 1.103.042.375 0 .209.252.209l2.263.187h.294c.23 0 .272 0 .251-.229 0-.896 0-1.813-.104-2.73 0 0 0-.145-.168-.145h-3.018m-6.288-7.626c0 .417.23.834.356 1.25 0 0 0 .167.189.167h2.599c.188 0 .188-.104.167-.23l-.188-1.04c-.105-.543-.21-1.084-.294-1.626 0-.188-.105-.27-.314-.25l-2.725.208h-.23c.14.528.286 1.028.44 1.5m3.961 6.022c.189 0 .21 0 .189-.209l-.378-2.083c0-.25 0-.5-.146-.771-.147-.27 0-.146-.189-.146h-2.347c-.231 0-.252 0-.168.25l.754 2.605a.274.274 0 0 0 .21.166h2.075m24.796 13.96c0-.404-.165-.79-.458-1.07a1.499 1.499 0 0 0-1.093-.41 1.51 1.51 0 0 0-1.454.69 1.493 1.493 0 0 0 0 1.6c.31.49.876.758 1.454.69a1.478 1.478 0 0 0 1.488-1.5m-19.912 0a1.524 1.524 0 0 0-1.51-1.5 1.545 1.545 0 0 0-1.508 1.5 1.525 1.525 0 0 0 1.509 1.479c.398.005.782-.148 1.066-.426.283-.278.443-.657.443-1.053m-6.456-12.501c-.188 0-.21 0-.167.187l.44 1.521.293.98a.25.25 0 0 0 .189.166l1.698.146s.146 0 .125-.146l-.167-1.792c0-.25 0-.479-.147-.729s0-.292-.315-.292h-1.823m21.353-45.436c-2.884-1.196-4.653-2.834-3.642-6.152a2.243 2.243 0 0 0-.653-1.974 93.67 93.67 0 0 0-10.106-6.131 14.89 14.89 0 0 0-9.242-1.827 44.183 44.183 0 0 1-5.369.294v-2.331c4.758-.483 9.39-1.302 13.895.86a3.786 3.786 0 0 0 2.106.568c3.284-.672 6.526-1.596 9.81-2.268a4.921 4.921 0 0 1 3.222.231c2.948 1.785 5.748 3.864 8.632 5.859-.21.672-.4 1.239-.632 1.89 2.337 1.616 4.527 3.317 6.885 4.745a13.36 13.36 0 0 1 6.316 7.455 11.898 11.898 0 0 1 0 8.399c-.758 1.953-1.832 2.898-3.937 1.764 2.948-5.376 3.032-7.58.716-10.268l-3.958.755c.126-.147-.21.126-.442.483-1.242 1.932-2.506 2.1-4.422.63-2.379-1.868-5.052-3.38-7.663-5.081a69.59 69.59 0 0 0-1.748 2.1m5.074-2.646 6.316 4.2 2.864-3.108-6.59-4.557c-.821 1.092-1.58 2.1-2.484 3.38M103.383 42a41.157 41.157 0 0 1 4.466 8.68c.14.435.183.895.128 1.349-.17 1.679-1.306 3.115-2.928 3.7a4.592 4.592 0 0 1-4.687-.96 3.84 3.84 0 0 1-1.042-4.464c1.212-2.699 2.595-5.315 4.063-8.305m-.128 12.313a2.51 2.51 0 0 0 2.316-.58c.618-.57.892-1.41.726-2.223a23.845 23.845 0 0 0-1.83-4.153c0-.166-.468-.187-.723-.29 0 .248-.234.518-.191.747a6.1 6.1 0 0 0 .489 1.162c.936 1.848 1.68 3.676-.787 5.316"/></g></svg>