<svg xmlns="http://www.w3.org/2000/svg" width="170" height="170" viewBox="0 0 170 170">
    <g fill="none" fill-rule="evenodd">
        <g>
            <g>
                <g>
                    <g transform="translate(-1275 -1250) translate(370 980) translate(800 270) translate(105)">
                        <circle cx="85" cy="85" r="75.5" fill="#FFF" fill-rule="nonzero" stroke="#B4BDCA" stroke-width="3"/>
                        <path fill="#000" d="M110.563 91.3v.107c6.913.194 13.31 3.699 17.187 9.417 6.08 8.837 3.394 19.862-6.08 25.739-8.98 5.684-22.578 4.29-29.646-3.968-8.593-10.017-4.683-24.281 8.185-29.579 3.295-1.284 6.821-1.868 10.354-1.716zm7.756-47.703c2 2.324 2.08 5.734.193 8.15-1.633 2.596-3.502 5.063-5.263 7.594-14.823 21.449-29.653 42.898-44.49 64.347-.876 1.192-1.846 2.31-2.9 3.347-2.281 2.287-5.727 2.958-8.701 1.694-2.954-.829-4.976-3.543-4.92-6.606.041-1.449.512-2.852 1.353-4.033 4.62-6.67 9.281-13.363 13.9-20.055 11.8-16.93 23.53-33.847 35.188-50.749 1.12-1.588 2.37-3.08 3.738-4.461 3.738-3.754 9.668-1.888 11.902.772zm-13.148 63.06c-1.472 1.4-2.08 3.48-1.59 5.449.483 2.383 2.511 4.143 4.942 4.29 2.554.486 5.105-.859 6.144-3.24.252-.699.453-1.416.601-2.144v-.064c-.02-1.539-.627-3.011-1.697-4.119-2.326-2.237-5.984-2.312-8.4-.171zM82.314 50.805c1.783 3.277 2.532 7.015 2.148 10.725l.022-.065c-.773 6.198-4.628 11.587-10.248 14.328-8.83 4.865-19.779 3.599-27.261-3.153-3.846-3.433-6.024-8.356-5.974-13.507.05-5.15 2.32-10.03 6.232-13.39 10.741-9.545 28.4-6.735 35.08 5.062zm-24.748 5.662c-1.051 1.887-.968 4.2.215 6.006 1.149 1.556 2.962 2.485 4.898 2.51 1.936.026 3.772-.856 4.962-2.381.626-.96.975-2.073 1.01-3.217 0-.558-.108-1.137-.236-1.695-.617-2.264-2.616-3.88-4.963-4.01-2.35-.376-4.69.732-5.886 2.787z"/>
                        <path fill="#F1592A" d="M167 132.028c-.015 8.28-6.738 14.982-15.018 14.972-8.281-.01-14.987-6.728-14.982-15.01.005-8.28 6.72-14.99 15-14.99 3.983 0 7.802 1.584 10.616 4.403 2.814 2.82 4.391 6.642 4.384 10.625z"/>
                        <text fill="#FFF" fill-rule="nonzero" font-family="Rubik-Medium, Rubik" font-size="24.903" font-weight="400">
                            <tspan x="144.143" y="140">3</tspan>
                        </text>
                    </g>
                </g>
            </g>
        </g>
    </g>
</svg>
