<svg xmlns="http://www.w3.org/2000/svg" width="170" height="170" viewBox="0 0 170 170"><defs><linearGradient id="a" x1="3051.308%" x2="3151.262%" y1="-5837.655%" y2="-5837.655%"><stop offset="62%" stop-color="#FFF"/><stop offset="83%" stop-color="#D0D0D0"/></linearGradient></defs><g fill="none" fill-rule="evenodd"><circle cx="84" cy="85" r="75.5" fill="#FFF" fill-rule="nonzero" stroke="#B4BDCA" stroke-width="3"/><path fill="#F1592A" d="M166 132.028c-.015 8.28-6.738 14.982-15.018 14.972-8.281-.01-14.987-6.728-14.982-15.01.005-8.28 6.72-14.99 15-14.99a15 15 0 0 1 15 15.028z"/><text fill="#FFF" fill-rule="nonzero" font-family="Rubik-Medium, Rubik" font-size="24.903" font-weight="400">
                            <tspan x="143.28" y="140">2</tspan>
                        </text><path fill="#000" d="m150.17 69-.021 5.275 11.27 10.716-11.376 11.402L150 102l17-17.009z"/><path d="M121.589 91.722a22.286 22.286 0 1 1-29.116 32.598 22.283 22.283 0 0 1-1.379-24.728c6.253-10.587 19.9-14.109 30.495-7.87z"/><path fill="url(#a)" fill-rule="nonzero" d="M40.713 53.722a22.284 22.284 0 1 1-30.495 7.87c6.254-10.587 19.9-14.109 30.495-7.87z" transform="translate(29 38)"/><path stroke="#B4BDCA" stroke-dasharray="2.02" stroke-linecap="round" d="M121.67 91.722c10.588 6.248 14.107 19.896 7.86 30.486-6.246 10.59-19.893 14.111-30.484 7.867-10.59-6.245-14.114-19.891-7.872-30.483 6.253-10.587 19.9-14.109 30.495-7.87zm-51.957 0a22.284 22.284 0 1 1-30.495 7.87c6.254-10.587 19.9-14.109 30.495-7.87z"/><path fill="#F1592A" d="M81.658 61.308a23.33 23.33 0 1 1-44.881-8.903A23.327 23.327 0 0 1 58.33 38a23.309 23.309 0 0 1 23.327 23.308z"/><path fill="#FFF" fill-rule="nonzero" d="M41.005 65.624v1.727h2.008v-1.727h.783v4.296h-.783v-2.007h-2.008v2.007h-.843v-4.296zm7.187 3.272a7.952 7.952 0 0 0 0 1.024h-.702v-.542a1.61 1.61 0 0 1-1.325.643 1.23 1.23 0 0 1-1.306-1.246c0-1.023.924-1.605 2.59-1.585v-.1a.88.88 0 0 0-.983-.984 2.007 2.007 0 0 0-1.124.321l-.18-.522c.432-.25.924-.382 1.424-.381 1.305 0 1.627.903 1.627 1.746l-.02 1.626zm-.742-1.164c-.864 0-1.827.12-1.827.964a.681.681 0 0 0 .723.742c.476.025.911-.27 1.064-.722.008-.08.008-.161 0-.241l.04-.743zm6.906 2.048c-.386.168-.804.25-1.225.24a2.005 2.005 0 0 1-2.148-2.188 2.209 2.209 0 0 1 2.309-2.308c.375-.009.747.074 1.084.24l-.16.603a2.01 2.01 0 0 0-.904-.201 1.626 1.626 0 0 0 0 3.252c.334.001.663-.074.963-.22l.08.582zm1.706-4.156v1.867h.16l1.607-1.867h.963l-1.867 2.008c.683 0 1.105.542 1.446 1.325.131.357.285.706.462 1.043h-.824a5.361 5.361 0 0 1-.401-.883 1.406 1.406 0 0 0-1.425-1.004h-.141V70h-.783v-4.376h.803zm4.176 0v3.533c.28-.522.421-.823.702-1.325l1.346-2.208h.923v4.296h-.743v-3.593a38.1 38.1 0 0 1-.702 1.345c-.241.441-.904 1.485-1.346 2.248h-.923v-4.296h.743zm7.588 0v3.714h.442v2.008h-.622V69.98h-2.971v1.366h-.623v-2.008h.2c.181-.274.323-.571.423-.883a5.38 5.38 0 0 0 .26-1.727v-1.104h2.891zm-2.188 1.285a5.915 5.915 0 0 1-.22 1.626c-.095.27-.209.53-.342.783h2.008v-3.112h-1.426l-.02.703zm4.336-1.285v1.867h.181l1.626-1.867h.944l-1.867 2.008c.702 0 1.104.542 1.445 1.325.131.357.286.706.462 1.043h-.823a5.45 5.45 0 0 1-.402-.883 1.386 1.386 0 0 0-1.405-1.004h-.16V70h-.763v-4.376h.762zm3.835 0 .943 2.53c.1.3.221.622.282.883 0-.261.16-.582.28-.904l.844-2.509H77l-1.185 3.072a6.663 6.663 0 0 1-1.525 2.69 2.396 2.396 0 0 1-.944.502l-.2-.663c.25-.081.482-.21.682-.381.283-.234.51-.53.662-.864a.454.454 0 0 0 0-.18.587.587 0 0 0 0-.221l-1.585-4.015.903.06zM44.438 53.98v.602a3.112 3.112 0 0 1 0 6.224v.622h-1.445v-.622a2.912 2.912 0 0 1-2.931-3.071 3.054 3.054 0 0 1 2.951-3.153v-.602h1.425zm-1.445 1.666c-.622 0-1.385.603-1.385 2.008s.763 2.008 1.385 2.008v-4.016zm1.445 4.016c.603 0 1.365-.583 1.365-2.008s-.722-2.008-1.365-2.008v4.016zm5.381-5.341v5.12c.361-.803.823-1.707 1.244-2.45l1.466-2.69h1.586v6.846h-1.426V59.14c-.013-.966.027-1.93.12-2.891a22.36 22.36 0 0 1-1.164 2.429l-1.405 2.47h-1.746V54.32h1.325zm7.126 0v5.581h1.687v-5.581h1.606v5.581h1.686v-5.581h1.526v6.846h-8.03v-6.846zm9.315 0v2.811h.141l1.867-2.81h1.887l-2.389 3.05a2.21 2.21 0 0 1 1.566 1.647c.212.733.474 1.45.783 2.148h-1.666a8.731 8.731 0 0 1-.522-1.505c-.241-.763-.562-1.346-1.385-1.346h-.282v2.851h-1.525v-6.846h1.525zm6.324 5.059-.502 1.747h-1.586l2.008-6.846h2.008l2.148 6.846h-1.687l-.522-1.746h-1.867zm1.727-1.164-.422-1.445c-.12-.422-.24-.924-.341-1.325-.1.401-.2.923-.321 1.325l-.402 1.445h1.486z"/><path fill="#F1592A" d="M132.51 61.308A23.329 23.329 0 1 1 109.202 38a23.307 23.307 0 0 1 23.308 23.307z"/><path fill="#FFF" fill-rule="nonzero" d="M91.837 65.624v1.727h2.007v-1.727h.783v4.296h-.783v-2.007h-2.007v2.007h-.783v-4.296zm7.147 3.272a7.607 7.607 0 0 0 0 1.024h-.603v-.542a1.586 1.586 0 0 1-1.304.643 1.226 1.226 0 0 1-1.325-1.245c0-1.024.923-1.606 2.59-1.586v-.1a.884.884 0 0 0-.984-.984 2.01 2.01 0 0 0-1.125.321l-.18-.522a2.84 2.84 0 0 1 1.425-.381 1.525 1.525 0 0 1 1.646 1.746l-.14 1.626zm-.763-1.164c-.863 0-1.827.12-1.827.964a.685.685 0 0 0 .723.742c.476.025.911-.27 1.064-.722a.545.545 0 0 0 0-.241l.04-.743zm6.986 2.048a3.02 3.02 0 0 1-1.245.24 2.004 2.004 0 0 1-2.148-2.188 2.208 2.208 0 0 1 2.329-2.308c.375-.006.747.077 1.084.24l-.18.583a2.223 2.223 0 0 0-.904-.201 1.626 1.626 0 0 0 0 3.252c.334.001.664-.074.964-.22l.1.602zm1.686-4.156v1.867h.181l1.626-1.867h.944l-1.867 2.008c.702 0 1.104.542 1.445 1.325.131.357.286.706.462 1.043h-.823a5.45 5.45 0 0 1-.402-.883 1.386 1.386 0 0 0-1.405-1.004h-.16V70h-.763v-4.376h.762zm4.217 0v3.533c.26-.522.4-.823.702-1.325l1.345-2.208h.903v4.296h-.742v-3.593c-.281.562-.462.903-.723 1.345l-1.345 2.248h-.823v-4.296h.682zm7.548 0v3.714h.441v2.008h-.642V69.98h-2.991v1.366h-.603v-2.008h.362c.188-.27.33-.568.421-.883.181-.558.27-1.14.261-1.727v-1.104h2.75zm-2.188 1.285a5.916 5.916 0 0 1-.221 1.626c-.086.272-.2.535-.342.783h2.008v-3.112h-1.466l.02.703zm4.336-1.285v1.867h.2l1.607-1.867h.943l-1.867 2.008c.703 0 1.124.542 1.466 1.325.115.36.263.71.441 1.043h-.823c-.1-.18-.24-.521-.401-.883a1.386 1.386 0 0 0-1.406-1.004h-.16V70h-.763v-4.376h.763zm3.854 0 .924 2.53c.115.287.209.582.28.883l.282-.904.863-2.509h.823l-1.184 3.072a6.947 6.947 0 0 1-1.466 2.69 2.42 2.42 0 0 1-.963.502l-.201-.663c.253-.076.486-.206.682-.381a2.2 2.2 0 0 0 .663-.864.454.454 0 0 0 0-.18.587.587 0 0 0 0-.221l-1.586-4.015.883.06zM95.27 53.98v.602a3.112 3.112 0 0 1 0 6.224v.622h-1.446v-.622a2.912 2.912 0 0 1-2.93-3.071 3.054 3.054 0 0 1 2.95-3.153v-.602h1.426zm-1.446 1.666c-.622 0-1.385.603-1.385 2.008s.763 2.008 1.385 2.008v-4.016zm1.446 4.016c.602 0 1.385-.583 1.385-2.008s-.743-2.008-1.385-2.008v4.016zm5.38-5.341v5.12c.361-.803.823-1.707 1.225-2.45l1.465-2.69h1.586v6.846h-1.425V59.14c-.014-.966.026-1.93.12-2.891-.331.836-.72 1.647-1.164 2.429l-1.385 2.47h-1.767V54.32h1.345zm7.127 0v5.581h1.706v-5.581h1.506v5.581h1.706v-5.581h1.506v6.846h-8.03v-6.846zm9.295 0v2.811h.14l1.887-2.85h1.888l-2.39 3.05a2.187 2.187 0 0 1 1.566 1.647c.213.733.474 1.45.783 2.148h-1.666c-.21-.489-.384-.992-.522-1.506-.24-.762-.542-1.345-1.385-1.345h-.301v2.851h-1.526v-6.806h1.526zm6.344 5.059-.482 1.747h-1.606l2.007-6.846h2.008l2.148 6.846h-1.686l-.522-1.746h-1.867zm1.746-1.164-.421-1.445c-.14-.422-.261-.924-.362-1.325-.1.401-.2.923-.3 1.325l-.422 1.445h1.505z"/><path fill="#F1592A" d="M71.982 101.479a23.309 23.309 0 1 1-32.12-7.209c10.86-6.873 25.237-3.647 32.12 7.208z"/><path fill="#FFF" fill-rule="nonzero" d="m39.982 126.875.923 1.465 1.727-1.084-.944-1.465.662-.422 2.309 3.634-.662.421-1.044-1.646-1.707 1.104 1.044 1.646-.662.402-2.309-3.634zm7.768-1.045c.182.295.384.577.603.844l-.582.361-.361-.421a1.57 1.57 0 0 1-.763 1.244 1.223 1.223 0 0 1-1.767-.341c-.562-.883 0-1.847 1.325-2.73a.881.881 0 0 0-1.345-.321 2.007 2.007 0 0 0-.783.883l-.442-.341c.233-.444.58-.818 1.004-1.085a1.529 1.529 0 0 1 2.329.603l.783 1.305zm-1.264-.582c-.723.442-1.465 1.085-1.024 1.787a.684.684 0 0 0 1.024.242c.41-.231.617-.708.502-1.165a.664.664 0 0 0-.1-.241l-.402-.623zm6.986-2.008c-.239.347-.546.64-.903.864a2.006 2.006 0 0 1-2.991-.702 2.187 2.187 0 0 1 .722-3.172c.313-.212.67-.35 1.044-.402l.16.602c-.31.033-.606.143-.862.322a1.625 1.625 0 0 0 1.706 2.75 2.28 2.28 0 0 0 .703-.683l.421.422zm-.782-4.416.983 1.566h.16l.362-2.429.803-.522-.542 2.65a1.849 1.849 0 0 1 2.008.341c.24.16.582.442.943.643l-.702.421a4.71 4.71 0 0 1-.804-.522 1.426 1.426 0 0 0-1.746 0h-.12l1.023 1.606-.662.422-2.309-3.654.602-.522zm3.533-2.268.963 1.546c.362.562.583.943.884 1.485v-4.095l.763-.482 2.188 3.553-.623.402-.983-1.546a18.968 18.968 0 0 1-.904-1.526c0 .623.1 1.004.12 1.526.02.522 0 1.726 0 2.61l-.762.482-2.309-3.634.663-.321zm6.384-4.016 2.007 3.132.382-.22.983 1.666-.501.321-.763-1.124-2.53 1.586.703 1.184-.522.321-1.064-1.606.301-.22a3.131 3.131 0 0 0-.1-.964 5.621 5.621 0 0 0-.723-1.586l-.602-.944 2.429-1.545zm-1.145 2.27c.297.46.527.96.683 1.485.074.276.121.558.14.843l1.667-1.064-1.707-2.65-1.204.763.421.622zm2.972-3.454 1.003 1.586.161-.1.361-2.45.803-.501-.502 2.65a1.868 1.868 0 0 1 2.008.34 9.4 9.4 0 0 0 .944.643l-.683.442a8.28 8.28 0 0 1-.823-.522 1.346 1.346 0 0 0-1.727 0h-.14l1.024 1.586-.663.422-2.308-3.634.542-.462zm3.232-2.048 2.168 1.647.703.582a8.08 8.08 0 0 1-.241-.904l-.643-2.59.703-.441.642 3.212c.31.994.379 2.046.201 3.072a2.257 2.257 0 0 1-.542.943l-.502-.461c.164-.202.286-.434.362-.683.111-.35.146-.72.1-1.084a.836.836 0 0 0 0-.2.388.388 0 0 0-.16-.141l-3.454-2.49.663-.462zm-31.037 5.922.321.503a2.93 2.93 0 0 1 4.155 1.044 2.968 2.968 0 0 1-.822 4.215l.32.522-1.224.783-.32-.542a2.87 2.87 0 0 1-4.016-1.003 3.05 3.05 0 0 1 .803-4.256l-.321-.502 1.104-.763zm-.321 2.189c-.482.381-.843 1.245 0 2.47a1.787 1.787 0 0 0 2.248.943l-2.248-3.413zm3.392 2.65c.482-.381.864-1.225 0-2.45-.863-1.224-1.666-1.264-2.248-.983l2.248 3.434zm1.627-7.529 1.104 1.707a54.799 54.799 0 0 1 1.586 2.67 33.445 33.445 0 0 1-.261-2.71l-.201-3.072 1.345-.863 3.674 5.802-1.205.763-1.084-1.707c-.562-.903-1.044-1.706-1.465-2.51.174.888.281 1.788.321 2.691l.16 2.83-1.505.944-3.634-5.721 1.165-.823zm6.022-3.774 2.992 4.718 1.445-.903-2.991-4.718 1.264-.803 2.992 4.718 1.445-.924-2.991-4.717 1.265-.804 3.674 5.782-6.706 4.256-3.674-5.781zm7.85-4.978 1.546 2.409h.12v-3.433l1.606-1.004-.24 3.794a2.149 2.149 0 0 1 2.187.562c.582.497 1.192.96 1.827 1.386l-1.405.903a9.766 9.766 0 0 1-1.245-1.004c-.622-.522-1.204-.843-1.907-.401l-.24.16 1.525 2.43-1.285.803-3.674-5.782 1.185-.823zm8.091.903.521 1.747-1.345.863-2.007-6.906 1.726-1.084 5.46 4.637-1.405.904-1.385-1.205-1.566 1.044zm.842-2.007-1.144-1.004c-.321-.261-.682-.643-.984-.924.12.382.322.884.442 1.285l.442 1.446 1.244-.803z"/></g></svg>