<svg xmlns="http://www.w3.org/2000/svg" width="24" height="25" viewBox="0 0 24 25">
    <g fill="none" fill-rule="evenodd">
        <g fill-rule="nonzero">
            <g>
                <g>
                    <g>
                        <g>
                            <g>
                                <g>
                                    <path fill="#3C3C3B" d="M24 24H0V0h24v24zM.559 23.441H23.44V.56H.56V23.44z" transform="translate(-1130 -4288) translate(238 1786) translate(61 2167) translate(750 54.5) translate(0 71) translate(1 210) translate(80)"/>
                                    <path fill="#3A3A38" d="M12 7c.204-1.54 1.065-2.962 2.418-4l.582.417s-2.364 1.869-2.236 3.537L12 7z" transform="translate(-1130 -4288) translate(238 1786) translate(61 2167) translate(750 54.5) translate(0 71) translate(1 210) translate(80)"/>
                                    <path fill="#3A3A38" d="M13 7l-.68-.328c-1.136-.536-2.43-.738-3.702-.578C7.554 6.188 6.227 6.313 6 4.44V4.22l.21-.11c2.112-1.061 3.665-1.358 4.765-.905 1.1.453 1.641 1.874 1.903 3.123L13 7zM9.509 5.438h.331c.74.05 1.47.191 2.165.422-.262-1-.628-1.718-1.344-2.015-.716-.297-2.13-.078-3.875.781.174 1 .698.953 1.745.859.317-.054.638-.09.96-.11l.018.063zM12.836 9.333c-1.45-1.085-7.06-3.034-7.794 3.932-.597 5.593 5.39 7.61 7.3 7.729 1.91.118 8.153-1.424 8.63-6.661.478-5.237-5.321-8.22-8.136-5zm6.533 5.78c-.464 1.285-1.308 2.402-2.422 3.203-.2.249-.466.437-.768.542 0 0 .324-.203.768-.542.97-1.435 1.398-3.163 1.21-4.881-.205-1.41-.693-2.763-1.432-3.983 1.501.17 3.718 1.373 2.644 5.66z" transform="translate(-1130 -4288) translate(238 1786) translate(61 2167) translate(750 54.5) translate(0 71) translate(1 210) translate(80)"/>
                                </g>
                            </g>
                        </g>
                    </g>
                </g>
            </g>
        </g>
    </g>
</svg>
