<svg xmlns="http://www.w3.org/2000/svg" width="24" height="25" viewBox="0 0 24 25"><g fill="none"><path fill="#3C3C3B" d="M24 24.5H0V.5h24v24zM.559 23.941H23.44V1.06H.56v22.88z"/><path fill="#3A3A38" d="M12 7.5c.204-1.54 1.065-2.962 2.418-4l.582.417s-2.364 1.869-2.236 3.537L12 7.5z"/><path fill="#3A3A38" d="m13 7.5-.68-.328a6.736 6.736 0 0 0-3.702-.578C7.554 6.688 6.227 6.813 6 4.94v-.22l.21-.11c2.112-1.061 3.665-1.358 4.765-.905 1.1.453 1.641 1.874 1.903 3.123L13 7.5zM9.509 5.938h.331c.74.05 1.47.191 2.165.422-.262-1-.628-1.718-1.344-2.015-.716-.297-2.13-.078-3.875.781.174 1 .698.953 1.745.859.317-.054.638-.09.96-.11l.018.063zm3.327 3.895c-1.45-1.085-7.06-3.034-7.794 3.932-.597 5.593 5.39 7.61 7.3 7.729 1.91.118 8.153-1.424 8.63-6.661.478-5.237-5.321-8.22-8.136-5zm6.533 5.78a6.785 6.785 0 0 1-2.422 3.203c-.2.249-.466.437-.768.542 0 0 .324-.203.768-.542a7.295 7.295 0 0 0 1.21-4.881 10.642 10.642 0 0 0-1.432-3.983c1.501.17 3.718 1.373 2.644 5.66z"/></g></svg>