<svg xmlns="http://www.w3.org/2000/svg" width="24" height="24" viewBox="0 0 24 24"><g fill="none"><path fill="#3C3C3B" d="M24 24H0V0h24v24zM.525 23.475h22.95V.525H.525v22.95z"/><path fill="#3A3A38" d="M8.283 9.46c.615-1.002 1.163-2.819 3.887.22 2.724 3.038 8.92 9.608 9.319 10.185.399.577 1.213 1.697-.747.798a39.564 39.564 0 0 1-5.466-3.531l.731-1.698-1.329 1.053-1.162-.747.814-2.122-1.944 1.596-1.03-1.053 1.03-2.003-1.977 1.205a16.999 16.999 0 0 1-2.408-2.07 5.536 5.536 0 0 1 .282-1.834zM3 5.303 4.104 4l3.681 3.291-1.067-2.245 1.95-.532L9 7.737A6.29 6.29 0 0 0 7.933 10c-1.473-.24-4.234-.6-4.234-.6l.203-1.714 2.613.651L3 5.303z"/></g></svg>