<svg xmlns="http://www.w3.org/2000/svg" width="24" height="24" viewBox="0 0 24 24">
    <g fill="none" fill-rule="evenodd">
        <g fill-rule="nonzero">
            <g>
                <g>
                    <g>
                        <g>
                            <g>
                                <g>
                                    <path fill="#3C3C3B" d="M24 24H0V0h24v24zM.525 23.475h22.95V.525H.525v22.95z" transform="translate(-726 -2697) translate(238 1786) translate(132 556) translate(0 137) translate(0 71) translate(340 147) translate(16)"/>
                                    <path fill="#3A3A38" d="M8.283 9.46c.615-1.002 1.163-2.819 3.887.22 2.724 3.038 8.92 9.608 9.319 10.185.399.577 1.213 1.697-.747.798-1.913-1.023-3.741-2.204-5.466-3.531l.731-1.698-1.329 1.053-1.162-.747.814-2.122-1.944 1.596-1.03-1.053 1.03-2.003-1.977 1.205c-.864-.612-1.67-1.305-2.408-2.07-.01-.624.086-1.244.282-1.834zM3 5.303L4.104 4l3.681 3.291-1.067-2.245 1.95-.532L9 7.737C8.492 8.421 8.13 9.19 7.933 10c-1.473-.24-4.234-.6-4.234-.6l.203-1.714 2.613.651L3 5.303z" transform="translate(-726 -2697) translate(238 1786) translate(132 556) translate(0 137) translate(0 71) translate(340 147) translate(16)"/>
                                </g>
                            </g>
                        </g>
                    </g>
                </g>
            </g>
        </g>
    </g>
</svg>
