<svg xmlns="http://www.w3.org/2000/svg" width="24" height="24" viewBox="0 0 24 24"><g fill="none"><path fill="#3C3C3B" d="M24 24H0V0h24v24zM.474 23.526h23.052V.474H.474v23.052z"/><path fill="#BBBBBA" d="M4 8.916v3.924s2.212-.705 2.49.771c.28 1.476-2.142 1.677-2.142 1.677V20s6.219-.721 9.232-1.224A55.233 55.233 0 0 0 21 16.847c0-1.86-.192-9.273-.192-10.061 0-.788-1.201-2.197-2.752-2.834a6.66 6.66 0 0 0-5.608-.587C9.696 4.204 4 8.915 4 8.915z"/><path fill="#3A3A38" d="M4.308 21v-5.2h.205a2.974 2.974 0 0 0 1.71-.745.996.996 0 0 0 .171-.745.882.882 0 0 0-.41-.624 2.548 2.548 0 0 0-1.71 0H4V9.23c.24-.19 5.661-4.888 8.363-5.824a5.966 5.966 0 0 1 5.131.382l.479.225c1.505.659 2.822 2.115 2.822 3.12s.137 8.528.205 10.4v.155h-.137a56.993 56.993 0 0 1-7.234 2.046c-2.925.52-9.013 1.248-9.082 1.265h-.24zm.427-4.888v4.437c1.146-.138 6.226-.762 8.825-1.23a55.83 55.83 0 0 0 7.252-1.942c0-2.149-.188-9.48-.188-10.312 0-.832-1.112-2.08-2.583-2.739l-.479-.208a5.544 5.544 0 0 0-4.96-.45c-2.462.849-7.473 5.2-8.14 5.684v3.692a2.62 2.62 0 0 1 1.83.122c.329.195.55.535.598.918.074.38-.02.772-.256 1.075a3.08 3.08 0 0 1-1.899.953z"/><path fill="#3A3A38" d="m4 9 16-1.647c.012-1.396-.8-2.675-2.092-3.294a7.317 7.317 0 0 0-7.583 0A32.447 32.447 0 0 0 4 9z"/><circle cx="16.5" cy="16.5" r="1.5" fill="#3A3A38"/><circle cx="8" cy="18" r="1" fill="#3A3A38"/><circle cx="18.5" cy="11.5" r="1.5" fill="#3A3A38"/><circle cx="11" cy="9" r="2" fill="#3A3A38"/><circle cx="12" cy="16" r="1" fill="#3A3A38"/></g></svg>