<svg xmlns="http://www.w3.org/2000/svg" width="24" height="24" viewBox="0 0 24 24">
    <g fill="none" fill-rule="evenodd">
        <g fill-rule="nonzero">
            <g>
                <g>
                    <g>
                        <g>
                            <g>
                                <g transform="translate(-806 -2697) translate(238 1786) translate(132 556) translate(0 137) translate(0 71) translate(340 147) translate(96)">
                                    <path fill="#3C3C3B" d="M24 24H0V0h24v24zM.474 23.526h23.052V.474H.474v23.052z"/>
                                    <path fill="#BBBBBA" d="M4 8.916v3.924s2.212-.705 2.49.771c.28 1.476-2.142 1.677-2.142 1.677V20s6.219-.721 9.232-1.224c2.518-.471 4.998-1.116 7.42-1.929 0-1.86-.192-9.273-.192-10.061 0-.788-1.201-2.197-2.752-2.834-1.676-1.015-3.744-1.231-5.608-.587C9.696 4.204 4 8.915 4 8.915z"/>
                                    <path fill="#3A3A38" d="M4.308 21v-5.2h.205c.634-.058 1.233-.319 1.71-.745.154-.215.215-.484.171-.745-.038-.26-.189-.488-.41-.624-.554-.197-1.157-.197-1.71 0H4V9.23c.24-.19 5.661-4.888 8.363-5.824 1.681-.654 3.562-.515 5.131.382l.479.225c1.505.659 2.822 2.115 2.822 3.12s.137 8.528.205 10.4v.155h-.137c-2.365.841-4.781 1.524-7.234 2.046-2.925.52-9.013 1.248-9.082 1.265h-.24zm.427-4.888v4.437c1.146-.138 6.226-.762 8.825-1.23 2.457-.484 4.88-1.132 7.252-1.942 0-2.149-.188-9.48-.188-10.312 0-.832-1.112-2.08-2.583-2.739l-.479-.208c-1.493-.926-3.327-1.093-4.96-.45-2.462.849-7.473 5.2-8.14 5.684v3.692c.605-.181 1.253-.138 1.83.122.329.195.55.535.598.918.074.38-.02.772-.256 1.075-.503.534-1.175.872-1.899.953z"/>
                                    <path fill="#3A3A38" d="M4 9l16-1.647c.012-1.396-.8-2.675-2.092-3.294-2.317-1.412-5.265-1.412-7.583 0C8.012 5.444 5.888 7.104 4 9z"/>
                                    <circle cx="16.5" cy="16.5" r="1.5" fill="#3A3A38"/>
                                    <circle cx="8" cy="18" r="1" fill="#3A3A38"/>
                                    <circle cx="18.5" cy="11.5" r="1.5" fill="#3A3A38"/>
                                    <circle cx="11" cy="9" r="2" fill="#3A3A38"/>
                                    <circle cx="12" cy="16" r="1" fill="#3A3A38"/>
                                </g>
                            </g>
                        </g>
                    </g>
                </g>
            </g>
        </g>
    </g>
</svg>
