<svg xmlns="http://www.w3.org/2000/svg" width="24" height="25" viewBox="0 0 24 25">
    <g fill="none" fill-rule="evenodd">
        <g fill-rule="nonzero">
            <g>
                <g>
                    <g>
                        <g>
                            <g>
                                <path fill="#3C3C3B" d="M24 24H0V0h24v24zM.559 23.441H23.44V.56H.56V23.44z" transform="translate(-1050 -4288) translate(238 1786) translate(61 2167) translate(750 54.5) translate(0 71) translate(1 210)"/>
                                <path fill="#3A3A38" d="M19.671 13.197c.646-1.203 1.427-2.33 2.329-3.359-.822.114-1.62.358-2.363.722-.68.386-1.307.854-1.87 1.394-.656-.737-1.431-1.36-2.294-1.847-.886-.463-1.82-.83-2.787-1.092.085-.252.2-.494.34-.722.387-.4.74-.833 1.053-1.293-1.495.151-1.53.386-3.671 1.68-2.693.085-5.135 1.583-6.408 3.93.626 1.61 1.928 2.872 3.57 3.459 1.747.622 3.6.907 5.455.84 0 .52 1.7 1.04 2.33 1.091-.387-.4-.662-.892-.8-1.427 1.086-.364 2.102-.903 3.009-1.596.238.756 2.634 1.881 4.062 2.116-1.309-.722-1.802-3.09-1.955-3.896zm-12.85-.739c-.31 0-.56-.248-.56-.554 0-.306.25-.554.56-.554.31 0 .561.248.561.554.005.148-.052.292-.159.397-.106.105-.251.162-.401.157zm3.995 0c-.044.833-.546 1.574-1.309 1.931.201-.652.344-1.32.425-1.998-.049-.724-.27-1.426-.646-2.049.578.302 1.649.823 1.53 2.032v.084zm2.345.689c-.04 1.043-.592 2.001-1.478 2.569.291-.914.524-1.845.697-2.788.014-.977-.147-1.95-.476-2.872.915.722 1.39 1.857 1.257 3.007v.084zm1.972.184c-.097.837-.652 1.554-1.445 1.864.254-.669.442-1.36.561-2.065-.003-.74-.177-1.47-.51-2.133.561.437 1.598 1.041 1.394 2.25v.084z" transform="translate(-1050 -4288) translate(238 1786) translate(61 2167) translate(750 54.5) translate(0 71) translate(1 210)"/>
                            </g>
                        </g>
                    </g>
                </g>
            </g>
        </g>
    </g>
</svg>
