<svg xmlns="http://www.w3.org/2000/svg" width="24" height="25" viewBox="0 0 24 25"><g fill="none"><path fill="#3C3C3B" d="M24 24.5H0V.5h24v24zM.559 23.941H23.44V1.06H.56v22.88z"/><path fill="#3A3A38" d="M19.671 13.697A18.05 18.05 0 0 1 22 10.338a7.811 7.811 0 0 0-2.363.722 9.413 9.413 0 0 0-1.87 1.394 8.97 8.97 0 0 0-2.294-1.847c-.886-.463-1.82-.83-2.787-1.092.085-.252.2-.494.34-.722.387-.4.74-.833 1.053-1.293-1.495.151-1.53.386-3.671 1.68A7.554 7.554 0 0 0 4 13.11a5.983 5.983 0 0 0 3.57 3.459c1.747.622 3.6.907 5.455.84 0 .52 1.7 1.04 2.33 1.091a3.203 3.203 0 0 1-.8-1.427 10.396 10.396 0 0 0 3.009-1.596c.238.756 2.634 1.881 4.062 2.116-1.309-.722-1.802-3.09-1.955-3.896zm-12.85-.739a.557.557 0 0 1-.56-.554c0-.306.25-.554.56-.554.31 0 .561.248.561.554a.544.544 0 0 1-.56.554zm3.995 0a2.266 2.266 0 0 1-1.309 1.931c.201-.652.344-1.32.425-1.998a4.56 4.56 0 0 0-.646-2.049c.578.302 1.649.823 1.53 2.032v.084zm2.345.689a3.2 3.2 0 0 1-1.478 2.569c.291-.914.524-1.845.697-2.788a8.197 8.197 0 0 0-.476-2.872 3.34 3.34 0 0 1 1.257 3.007v.084zm1.972.184a2.288 2.288 0 0 1-1.445 1.864c.254-.669.442-1.36.561-2.065a4.795 4.795 0 0 0-.51-2.133c.561.437 1.598 1.041 1.394 2.25v.084z"/></g></svg>