<svg xmlns="http://www.w3.org/2000/svg" width="24" height="24" viewBox="0 0 24 24">
    <g fill="none" fill-rule="evenodd">
        <g fill-rule="nonzero">
            <g>
                <g>
                    <g>
                        <g>
                            <g>
                                <g>
                                    <path fill="#3C3C3B" d="M24 24H0V0h24v24zM.559 23.441H23.44V.56H.56V23.44z" transform="translate(-766 -2697) translate(238 1786) translate(132 556) translate(0 137) translate(0 71) translate(340 147) translate(56)"/>
                                    <path fill="#FFF" d="M14.013 19.023l.318.459c.12.16.248.313.385.458.06.06.128.112.201.153l.117-.187.252.12c.217 0 .351 0 .318-.273-.01-.118-.01-.238 0-.356h.301c-.16-.43-.418-.814-.753-1.122.232.098.499.052.686-.118-.435-.544-1.155-.731-1.574-1.343h.201c.186.134.434.134.62 0 .15-.102.184-.22 0-.356-.185-.136-.268-.29-.402-.442.038-.022.072-.05.1-.085.023-.078.023-.16 0-.238 0 0-.117-.102-.184-.085l-.552.085c-.128.026-.258.026-.386 0 0 0-.117 0-.134-.153-.016-.153 0-.102.118-.136h.234l.904-.136c.193-.023.385.046.52.187l1.322 1.088c.385.322.77.662 1.122 1.019.352.357.285.425.435.629.04.082.11.143.197.17.086.025.179.013.255-.035-.04-.134-.09-.264-.15-.39-.285-.433-.642-.813-1.055-1.122l-1.775-1.597c-.206-.112-.32-.343-.285-.577.091-.442.274-.859.536-1.223.219-.275.614-.32.888-.102.244.185.473.39.686.611.251.204.469.442.72.629s.251 0 .318-.12c.27.217.612.32.955.29 0-.799-.62-1.07-1.19-1.376.117-.02.236-.02.352 0l1.507.441c.248.058.506.058.754 0 0-.407-.368-.51-.636-.662h.268c.184 0 .351.187.535.255.129.009.257.009.385 0l-.1-.068.653-.323-.586-.493.084-.153c-.192-.221-.464-.356-.754-.373l.084-.46c-.62-.065-1.247.047-1.808.324l.284-.561.168-.238V10.8c-.083-.103-.179-.194-.285-.272 0 0-.117 0-.167-.084l.736-.527c.151-.102.134-.17 0-.255v-.578c-.19.095-.421.029-.536-.152h-.184l-1.055.628-.134.102c.319-.544.955-.747 1.357-1.223h-.168v-.374l-.887.17c0-.22.218-.459.301-.73.049-.12.049-.255 0-.374h-.284v-.629h-.201c0-.289 0-.425-.252-.39-.25.033-.318.101-.485 0v.543h-.117c-.235-.119-.335 0-.352.204-.007.062-.007.125 0 .187.022.138.055.275.1.407-.286-.05-.547-.2-.736-.424-.097-.087-.204-.161-.318-.221-.042-.024-.093-.024-.134 0-.053.05-.098.107-.134.17l.016.306c-.167 0-.15.186 0 .322.151.136.252.663.369.986-.436.153-.688.614-.586 1.07v.595-.255c-.117-.459-.201-.935-.318-1.393 0-.153-.1-.306-.285-.306-.184 0-.184.119-.285.187-.485-.391-.569-.459-.904-.272-.15-.102-.552-.153-.62 0-.066.153 0 .39.084.578h-.167c0 .322.335.424.502.645h-.485c-.027.135-.027.273 0 .408.128.195.268.382.418.56l-.787.221c-.254-.34-.483-.697-.686-1.07-.215-.203-.297-.513-.211-.798.085-.285.323-.496.613-.544h.134l1.289-.476 1.356-.56c-.017-.06-.052-.114-.1-.153-.078-.016-.157-.016-.235 0l.67-.51c.036-.04.065-.086.084-.136-.117-.119 0-.153 0-.204.068-.066.12-.147.15-.238l-.853.221c-.112.058-.219.126-.319.204.134-.204.436-.22.486-.543h-.385v-.12c.056-.037.09-.101.09-.17 0-.068-.034-.131-.09-.17-.088-.025-.18-.025-.268 0l-.335.222h-.15c-.21-.04-.42.063-.52.255-.007.067-.007.136 0 .203-.854-.034-1.004.476-1.004.986 0-.493-.235-.765-.704-.748h-.519c-.134 0-.2 0-.134.238h-.167l-.15.102c-.015.067-.015.137 0 .204.133.136.3.255.451.39.151.137.57.442.553.833-.025.283-.081.562-.168.833-.334-.51-.67-.986-.97-1.479-.31-.408-.235-.993.167-1.308.234-.22.485-.407.703-.628.217-.146.358-.383.385-.646-.287-.052-.583.016-.82.187.113-.12.214-.25.301-.39.033-.065.033-.14 0-.205-.07-.026-.147-.026-.218 0-.06-.013-.123-.013-.184 0 .01-.124.01-.249 0-.373v-.102c0 .017-.15 0-.2-.136-.051-.136-.101 0-.151 0-.103-.027-.211-.003-.294.063-.082.067-.128.17-.125.277-.251-.102-.285 0-.352.186-.016.056-.016.115 0 .17 0 .306 0 .612.1.935.101.323 0 .357 0 .543h-.217c0-.17-.117-.322-.15-.492-.07-.423-.03-.856.117-1.257.092-.223.039-.48-.134-.646-.252-.272-.235-.289-.486 0 .017-.272.017-.459.017-.646 0-.186-.117-.288-.318-.254-.048-.105-.11-.202-.185-.29-.155-.105-.318-.202-.485-.288L7.7 2l-.217.238v.085c-.268 0-.302 0-.184.272.117.271.284.458.452.73l-.218-.204c-.211-.172-.49-.235-.753-.17-.134 0-.185.136 0 .238l.217.204c-.15 0-.134.136 0 .238.037.14.1.273.184.39.537.356 1.008.804 1.39 1.326.117.153.218.323.318.476H8.605c-.268-.323-.536-.663-.787-1.003l-.285-.357c-.053-.024-.114-.024-.167 0v.357c0 .068-.352-.425-.687-.238-.08-.057-.171-.098-.268-.119-.1 0-.184 0-.284.085.026.077.06.151.1.221-.008.04-.008.08 0 .12-.218.169-.218.203 0 .339 0 .119-.134.255-.1.306.033.05.2.102.3.153h.486c-.087.059-.183.104-.284.136-.218 0-.251.17-.084.34.078.06.162.111.251.152 0 0 .117 0 .134.102s0 .306.084.425-.201 0-.218.102c-.03.088-.03.184 0 .272.024.066.064.125.117.17.319.237.62.475.955.68.335.203.753.39 1.122.577-.128.017-.258.017-.385 0l-1.809-.816-.636-.255c-.167 0-.234 0-.2.17H5.69c-.184.12-.184.187-.184.374.09.206.27.357.486.408.097.032.192.072.284.119h-.536c-.3-.093-.62-.093-.92 0-.235.119-.235.136 0 .305h-.486v.255L4 9.493l.301.424v.17l.386-.085-.101.289.77-.102c0 .136-.15.322 0 .492.627-.206 1.238-.462 1.825-.764-.53.318-.844.905-.82 1.529l.82-.493v.204-.17c.103-.214.232-.414.386-.594.429-.399.921-.72 1.456-.952l.52-.238-1.039.527c-.383.16-.726.403-1.004.714-.235.271-.218.34 0 .526-.27.248-.375.632-.268.986.167 0 .351 0 .519-.153.218-.04.431-.102.636-.187.108-.082.209-.173.301-.272l.168.408.703-1.037v.136c-.015.152.036.302.139.413.102.11.247.17.397.165.075-.011.142-.055.184-.119 0-.17.117-.357.168-.527.025-.163.025-.33 0-.492.083-.12.083-.374-.017-.476-.037-.146.002-.302.104-.412.102-.11.252-.16.398-.132.226.006.434.128.553.323.62 1.053 1.222 2.09 1.858 3.126.402.646.837 1.291 1.256 1.937.1.136 0 .153 0 .17-.188.05-.372.113-.552.187-.289.124-.617.106-.89-.05-.273-.157-.458-.434-.5-.749-.117-.442-.184-.917-.285-1.376-.033-.283-.194-.534-.435-.68v.17c-.251 0-.352 0-.486.187-.2.303-.2.7 0 1.003.134.22.268.441.419.662-.168-.187-.352-.357-.503-.56-.15-.204-.368-.595-.569-.867-.122-.21-.32-.362-.552-.425-.118.204-.118.204 0 .969l-.235-.12c-.11-.08-.227-.148-.351-.203h-.335c-.034 0-.168.136-.268.136-.094-.018-.19.017-.252.09-.062.074-.081.175-.05.267.017.043.017.092 0 .135l-.117.187c.335.136.72 0 1.005.272-.139.026-.28.026-.419 0-.134 0-.251 0-.284.17-.02.145.075.28.217.306l.77.153h.52-.352c-.277-.015-.548.083-.754.272-.083.102-.083.17 0 .237l.536.29c-.05.034-.117.034-.167 0l-.854-.442c-.168-.064-.342-.11-.52-.136-.217 0-.317.153-.234.356l.235.306c.115.127.238.246.368.357-.452 0-.854-.289-1.306 0l.184.272-.686.696c.285.25.672.344 1.038.255l-.218.51c.849-.031 1.679-.258 2.428-.663-.143.129-.294.248-.452.357-.295.177-.603.33-.92.459-.47.187-.972.34-1.458.51-.15 0-.167.152 0 .237.168.085.151 0 .235.12-.083.086-.161.176-.235.271-.134.17 0 .357.151.374.178.026.358.026.536 0 .285 0 .552-.204.82-.306-.586.384-.987 1-1.105 1.699.302.119.553 0 .837-.187-.207.314-.274.703-.184 1.07l.385-.119c-.158.279-.158.622 0 .9l.1.035.101.374c0 .135.1.271.251.17l.151-.442c.218.187.318.153.335-.085.016-.107.016-.216 0-.323v-.39l.201.152c0-.085.1-.17.134-.255.033-.085 0-.119 0-.17 0-.645.1-1.29.167-1.936.036-.322.177-.621.402-.85-.084.306-.15.595-.217.884-.062.358.072.722.351.951l.586-.595c.218.12.385 0 .369-.254-.017-.255 0-.493 0-.748 0-.51.1-1.002.184-1.512.02-.355.162-.692.402-.951.301-.272.636-.51.954-.782.117 0 .167 0 .117.136-.072.2-.162.394-.268.578-.25.305-.519.611-.787.9-.188.182-.297.433-.301.697 0 .17 0 .254.2.271-.048.26.02.528.185.731.527-.114.9-.592.888-1.138v-.527c.142.169.187.401.117.612-.062.45-.022.91.117 1.342.023.103.075.198.15.272.065.072.156.115.252.119 0 0 .15-.153.167-.238 0-.132-.016-.264-.05-.391z" transform="translate(-766 -2697) translate(238 1786) translate(132 556) translate(0 137) translate(0 71) translate(340 147) translate(56)"/>
                                    <path fill="#FFF" d="M13.06 12.097l2.012.31c.382.03.716.262.865.603.09.24.083.503-.02.737-.221.37-.483.719-.704 1.068-.221.35-.14.117-.201 0-.644-.951-1.308-1.941-2.012-2.815l.06.097z" transform="translate(-766 -2697) translate(238 1786) translate(132 556) translate(0 137) translate(0 71) translate(340 147) translate(56)"/>
                                    <path fill="#3A3A38" d="M22 12.924l-.586-.493.084-.153c-.192-.221-.464-.356-.754-.373l.084-.46c-.62-.065-1.247.047-1.808.324l.284-.561.168-.238v-.238c-.083-.103-.179-.194-.285-.271 0 0-.117 0-.167-.085l.736-.46c.151-.101.134-.169 0-.254v-.578c-.19.095-.421.029-.536-.152h-.184l-1.055.628-.134.102c.319-.544.955-.747 1.357-1.223h-.168v-.374l-.887.17c0-.22.218-.459.301-.73.049-.12.049-.255 0-.374h-.284v-.629h-.201c0-.289 0-.425-.252-.39-.25.033-.318.101-.485 0v.543h-.117c-.235-.119-.335 0-.352.204-.007.062-.007.125 0 .187.022.138.055.275.1.407-.286-.05-.547-.2-.736-.424-.097-.087-.204-.161-.318-.221-.042-.024-.093-.024-.134 0-.053.05-.098.107-.134.17l.016.306c-.167 0-.15.186 0 .322.151.136.252.663.369.986-.436.153-.688.614-.586 1.07v.595-.255c-.117-.459-.201-.935-.318-1.393 0-.153-.1-.306-.285-.306-.184 0-.184.119-.285.187-.485-.391-.569-.459-.904-.272-.15-.102-.552-.153-.62 0-.066.153 0 .39.084.578h-.167c0 .322.335.424.502.645h-.485c-.027.135-.027.273 0 .408.128.195.268.382.418.56l-.787.221c-.254-.34-.483-.697-.686-1.07-.215-.203-.297-.513-.211-.798.085-.285.323-.496.613-.544h.134l1.289-.476 1.356-.56c-.017-.06-.052-.114-.1-.153-.078-.016-.157-.016-.235 0l.67-.51c.036-.04.065-.086.084-.136-.117-.119 0-.153 0-.204.068-.066.12-.147.15-.238l-.853.221c-.112.058-.219.126-.319.204.134-.204.436-.22.486-.543h-.385v-.12c.056-.037.09-.101.09-.17 0-.068-.034-.131-.09-.17-.088-.025-.18-.025-.268 0l-.335.222h-.15c-.21-.04-.42.063-.52.255-.007.067-.007.136 0 .203-.854-.034-1.004.476-1.004.986 0-.493-.235-.765-.704-.748h-.519c-.134 0-.2 0-.134.238h-.167l-.15.102c-.015.067-.015.137 0 .204.133.136.3.255.451.39.151.137.57.442.553.833-.025.283-.081.562-.168.833-.334-.51-.67-.986-.97-1.479-.31-.408-.235-.993.167-1.308.234-.22.485-.407.703-.628.217-.146.358-.383.385-.646-.287-.052-.583.016-.82.187.113-.12.214-.25.301-.39.033-.065.033-.14 0-.205-.07-.026-.147-.026-.218 0-.06-.013-.123-.013-.184 0 .01-.124.01-.249 0-.373v-.102c0 .017-.15 0-.2-.136-.051-.136-.101 0-.151 0-.103-.027-.211-.003-.294.063-.082.067-.128.17-.125.277-.251-.102-.285 0-.352.186-.016.056-.016.115 0 .17 0 .306 0 .612.1.935.101.323 0 .357 0 .543h-.217c0-.17-.117-.322-.15-.492-.07-.423-.03-.856.117-1.257.092-.223.039-.48-.134-.646-.252-.272-.235-.289-.486 0 .017-.272.017-.459.017-.646 0-.186-.117-.288-.318-.254-.048-.105-.11-.202-.185-.29-.155-.105-.318-.202-.485-.288L7.7 2l-.217.238v.085c-.268 0-.302 0-.184.272.117.271.284.458.452.73l-.218-.204c-.211-.172-.49-.235-.753-.17-.134 0-.185.136 0 .238l.217.204c-.15 0-.134.136 0 .238.037.14.1.273.184.39.537.356 1.008.804 1.39 1.326.117.153.218.323.318.476H8.605c-.268-.323-.536-.663-.787-1.003l-.285-.357c-.053-.024-.114-.024-.167 0v.357c0 .068-.352-.425-.687-.238-.08-.057-.171-.098-.268-.119-.1 0-.184 0-.284.085.026.077.06.151.1.221-.008.04-.008.08 0 .12-.218.169-.218.203 0 .339 0 .119-.134.255-.1.306.033.05.2.102.3.153h.486c-.087.059-.183.104-.284.136-.218 0-.251.17-.084.34.078.06.162.111.251.152 0 0 .117 0 .134.102s0 .306.084.425-.201 0-.218.102c-.03.088-.03.184 0 .272.024.066.064.125.117.17.319.237.62.475.955.68.335.203.753.39 1.122.577-.128.017-.258.017-.385 0l-1.809-.816-.636-.255c-.167 0-.234 0-.2.17H5.69c-.184.12-.184.187-.184.374.09.206.27.357.486.408.097.032.192.072.284.119h-.536c-.3-.093-.62-.093-.92 0-.235.119-.235.136 0 .305h-.486v.255L4 9.493l.301.424v.17l.386-.085-.101.289.77-.102c0 .136-.15.322 0 .492.627-.206 1.238-.462 1.825-.764-.53.318-.844.905-.82 1.529l.82-.493v.204-.17c.103-.214.232-.414.386-.594.429-.399.921-.72 1.456-.952l.52-.238-1.039.527c-.383.16-.726.403-1.004.714-.235.271-.218.34 0 .526-.27.248-.375.632-.268.986.167 0 .351 0 .519-.153.218-.04.431-.102.636-.187.108-.082.209-.173.301-.272l.168.408.703-1.037v.136c-.015.152.036.302.139.413.102.11.247.17.397.165.075-.011.142-.055.184-.119 0-.17.117-.357.168-.527.025-.163.025-.33 0-.492.083-.12.083-.374-.017-.476-.037-.146.002-.302.104-.412.102-.11.252-.16.398-.132.226.006.434.128.553.323.62 1.053 1.222 2.09 1.858 3.126.402.646.837 1.291 1.256 1.937.1.136 0 .153 0 .17-.188.05-.372.113-.552.187-.289.124-.617.106-.89-.05-.273-.157-.458-.434-.5-.749-.117-.442-.184-.917-.285-1.376-.033-.283-.194-.534-.435-.68v.17c-.251 0-.352 0-.486.187-.2.303-.2.7 0 1.003.134.22.268.441.419.662-.168-.187-.352-.357-.503-.56-.15-.204-.368-.595-.569-.867-.122-.21-.32-.362-.552-.425-.118.204-.118.204 0 .969l-.235-.12c-.11-.08-.227-.148-.351-.203h-.335c-.034 0-.168.136-.268.136-.094-.018-.19.017-.252.09-.062.074-.081.175-.05.267.017.043.017.092 0 .135l-.117.187c.335.136.72 0 1.005.272-.139.026-.28.026-.419 0-.134 0-.251 0-.284.17-.02.145.075.28.217.306l.77.153h.52-.352c-.277-.015-.548.083-.754.272-.083.102-.083.17 0 .237l.536.29c-.05.034-.117.034-.167 0l-.854-.442c-.168-.064-.342-.11-.52-.136-.217 0-.317.153-.234.356l.235.306c.115.127.238.246.368.357-.452 0-.854-.289-1.306 0l.184.272-.686.696c.285.25.672.344 1.038.255l-.218.51c.849-.031 1.679-.258 2.428-.663-.143.129-.294.248-.452.357-.295.177-.603.33-.92.459-.47.187-.972.34-1.458.51-.15 0-.167.152 0 .237.168.085.151 0 .235.12-.083.086-.161.176-.235.271-.134.17 0 .357.151.374.178.026.358.026.536 0 .285 0 .552-.204.82-.306-.586.384-.987 1-1.105 1.699.302.119.553 0 .837-.187-.207.314-.274.703-.184 1.07l.385-.119c-.158.279-.158.622 0 .9l.1.035.101.374c0 .135.1.271.251.17l.151-.442c.218.187.318.153.335-.085.016-.107.016-.216 0-.323v-.39l.201.152c0-.085.1-.17.134-.255.033-.085 0-.119 0-.17 0-.645.1-1.29.167-1.936.036-.322.177-.621.402-.85-.084.306-.15.595-.217.884-.062.358.072.722.351.951l.586-.595c.218.12.385 0 .369-.254-.017-.255 0-.493 0-.748 0-.51.1-1.002.184-1.512.02-.355.162-.692.402-.951.301-.272.636-.51.954-.782.117 0 .167 0 .117.136-.072.2-.162.394-.268.578-.25.305-.519.611-.787.9-.188.182-.297.433-.301.697 0 .17 0 .254.2.271-.048.26.02.528.185.731.527-.114.9-.592.888-1.138v-.527c.142.169.187.401.117.612-.062.45-.022.91.117 1.342.023.103.075.198.15.272.065.072.156.115.252.119 0 0 .15-.153.167-.238.017-.13.017-.261 0-.391l.318.459c.12.16.248.313.386.458.06.06.127.112.2.153l.118-.187.25.12c.218 0 .352 0 .319-.273-.01-.118-.01-.238 0-.356h.301c-.159-.43-.417-.814-.753-1.122.232.098.5.052.686-.118-.435-.544-1.155-.731-1.574-1.343h.201c.186.134.434.134.62 0 .15-.102.184-.22 0-.356-.184-.136-.268-.29-.402-.442.038-.022.072-.05.1-.085.023-.078.023-.16 0-.238 0 0-.117-.102-.184-.085l-.552.085c-.127.026-.258.026-.385 0 0 0-.118 0-.134-.153-.017-.153 0-.102.117-.136h.234l.904-.136c.193-.023.385.046.52.187l1.322 1.088c.385.322.77.662 1.122 1.019.352.357.285.425.436.629.038.082.11.143.196.17.086.025.179.013.256-.035-.04-.134-.09-.264-.151-.39-.285-.433-.642-.813-1.055-1.122l-1.825-1.597c-.206-.112-.32-.343-.285-.577.091-.442.274-.859.536-1.223.219-.275.614-.32.888-.102.244.185.473.39.686.611.251.204.469.442.72.629s.251 0 .318-.12c.27.217.612.32.955.29 0-.799-.62-1.07-1.19-1.376.117-.02.236-.02.352 0l1.507.441c.248.058.506.058.754 0 0-.407-.368-.51-.636-.662h.268c.184 0 .351.187.535.255.129.009.257.009.385 0l-.1-.068.653-.391zM9.676 7.063c.297.184.548.434.737.73.234.425.469.833.737 1.274-.82-.424-1.49-.849-1.474-2.004zm1.675 9.123c-.397.085-.81.03-1.172-.153.62-.221 1.205-.476 1.808-.68.26-.043.526-.043.787 0-.378.378-.836.662-1.34.833h-.083zm1.473-4.961l.318.102c-.117.153-.134.153-.234-.102h-.084zm2.813 2.09c-.184.322-.402.628-.586.934-.184.306-.117.102-.167 0-.536-.832-1.089-1.699-1.675-2.463l1.675.271c.318.026.596.229.72.527.114.227.127.494.033.73zm.402-.918c-.24-.944-.12-1.945.335-2.803.54.924.403 2.1-.335 2.871v-.068zm1.34-.204c-.265.31-.651.485-1.055.476v-.17c.25-.425.485-.883.77-1.291.29-.384.786-.54 1.239-.39l-.954 1.375z" transform="translate(-766 -2697) translate(238 1786) translate(132 556) translate(0 137) translate(0 71) translate(340 147) translate(56)"/>
                                    <path fill="#FFF" d="M13.19 11.999c-.24.18-.26.18-.38-.12l.38.12z" transform="translate(-766 -2697) translate(238 1786) translate(132 556) translate(0 137) translate(0 71) translate(340 147) translate(56)"/>
                                </g>
                            </g>
                        </g>
                    </g>
                </g>
            </g>
        </g>
    </g>
</svg>
