<svg xmlns="http://www.w3.org/2000/svg" width="24" height="24" viewBox="0 0 24 24"><g fill="none"><path fill="#3C3C3B" d="M24 24H0V0h24v24zM.559 23.441H23.44V.56H.56v22.88z"/><path fill="#FFF" d="m14.013 19.023.318.459c.12.16.248.313.385.458a.93.93 0 0 0 .201.153l.117-.187.252.12c.217 0 .351 0 .318-.273a2.116 2.116 0 0 1 0-.356h.301a2.893 2.893 0 0 0-.753-1.122.645.645 0 0 0 .686-.118c-.435-.544-1.155-.731-1.574-1.343h.201a.528.528 0 0 0 .62 0c.15-.102.184-.22 0-.356-.185-.136-.268-.29-.402-.442a.354.354 0 0 0 .1-.085.42.42 0 0 0 0-.238s-.117-.102-.184-.085l-.552.085a.965.965 0 0 1-.386 0s-.117 0-.134-.153c-.016-.153 0-.102.118-.136h.234l.904-.136a.618.618 0 0 1 .52.187l1.322 1.088c.385.322.77.662 1.122 1.019.352.357.285.425.435.629a.314.314 0 0 0 .452.135 2.706 2.706 0 0 0-.15-.39 4.47 4.47 0 0 0-1.055-1.122l-1.775-1.597a.562.562 0 0 1-.285-.577c.091-.442.274-.859.536-1.223a.63.63 0 0 1 .888-.102c.244.185.473.39.686.611.251.204.469.442.72.629s.251 0 .318-.12c.27.217.612.32.955.29 0-.799-.62-1.07-1.19-1.376.117-.02.236-.02.352 0l1.507.441c.248.058.506.058.754 0 0-.407-.368-.51-.636-.662h.268c.184 0 .351.187.535.255.129.009.257.009.385 0l-.1-.068.653-.323-.586-.493.084-.153a1.085 1.085 0 0 0-.754-.373l.084-.46a3.306 3.306 0 0 0-1.808.324l.284-.561.168-.238V10.8a1.53 1.53 0 0 0-.285-.272s-.117 0-.167-.084l.736-.527c.151-.102.134-.17 0-.255v-.578a.415.415 0 0 1-.536-.152h-.184l-1.055.628-.134.102c.319-.544.955-.747 1.357-1.223h-.168v-.374l-.887.17c0-.22.218-.459.301-.73a.494.494 0 0 0 0-.374h-.284v-.629h-.201c0-.289 0-.425-.252-.39-.25.033-.318.101-.485 0v.543h-.117c-.235-.119-.335 0-.352.204a.835.835 0 0 0 0 .187c.022.138.055.275.1.407-.286-.05-.547-.2-.736-.424a1.574 1.574 0 0 0-.318-.221.134.134 0 0 0-.134 0 .734.734 0 0 0-.134.17l.016.306c-.167 0-.15.186 0 .322.151.136.252.663.369.986a.92.92 0 0 0-.586 1.07v.595-.255c-.117-.459-.201-.935-.318-1.393 0-.153-.1-.306-.285-.306-.184 0-.184.119-.285.187-.485-.391-.569-.459-.904-.272-.15-.102-.552-.153-.62 0-.066.153 0 .39.084.578h-.167c0 .322.335.424.502.645h-.485a1.038 1.038 0 0 0 0 .408c.128.195.268.382.418.56l-.787.221a8.876 8.876 0 0 1-.686-1.07.786.786 0 0 1 .402-1.342h.134l1.289-.476 1.356-.56a.304.304 0 0 0-.1-.153.581.581 0 0 0-.235 0l.67-.51a.436.436 0 0 0 .084-.136c-.117-.119 0-.153 0-.204a.589.589 0 0 0 .15-.238l-.853.221a2.054 2.054 0 0 0-.319.204c.134-.204.436-.22.486-.543h-.385v-.12a.203.203 0 0 0 .09-.17.207.207 0 0 0-.09-.17.488.488 0 0 0-.268 0l-.335.222h-.15a.484.484 0 0 0-.52.255.984.984 0 0 0 0 .203c-.854-.034-1.004.476-1.004.986 0-.493-.235-.765-.704-.748h-.519c-.134 0-.2 0-.134.238h-.167l-.15.102a.468.468 0 0 0 0 .204c.133.136.3.255.451.39.151.137.57.442.553.833a3.824 3.824 0 0 1-.168.833c-.334-.51-.67-.986-.97-1.479a.942.942 0 0 1 .167-1.308c.234-.22.485-.407.703-.628a.887.887 0 0 0 .385-.646 1.075 1.075 0 0 0-.82.187c.113-.12.214-.25.301-.39a.225.225 0 0 0 0-.205.314.314 0 0 0-.218 0 .439.439 0 0 0-.184 0c.01-.124.01-.249 0-.373v-.102c0 .017-.15 0-.2-.136-.051-.136-.101 0-.151 0a.335.335 0 0 0-.419.34c-.251-.102-.285 0-.352.186a.307.307 0 0 0 0 .17c0 .306 0 .612.1.935.101.323 0 .357 0 .543h-.217c0-.17-.117-.322-.15-.492-.07-.423-.03-.856.117-1.257a.586.586 0 0 0-.134-.646c-.252-.272-.235-.289-.486 0 .017-.272.017-.459.017-.646 0-.186-.117-.288-.318-.254a1.242 1.242 0 0 0-.185-.29 4.725 4.725 0 0 0-.485-.288L7.7 2l-.217.238v.085c-.268 0-.302 0-.184.272.117.271.284.458.452.73l-.218-.204a.864.864 0 0 0-.753-.17c-.134 0-.185.136 0 .238l.217.204c-.15 0-.134.136 0 .238.037.14.1.273.184.39a5.46 5.46 0 0 1 1.39 1.326c.117.153.218.323.318.476h-.284a22.703 22.703 0 0 1-.787-1.003l-.285-.357a.203.203 0 0 0-.167 0v.357c0 .068-.352-.425-.687-.238a.728.728 0 0 0-.268-.119c-.1 0-.184 0-.284.085.026.077.06.151.1.221a.303.303 0 0 0 0 .12c-.218.169-.218.203 0 .339 0 .119-.134.255-.1.306.033.05.2.102.3.153h.486a1.093 1.093 0 0 1-.284.136c-.218 0-.251.17-.084.34.078.06.162.111.251.152 0 0 .117 0 .134.102s0 .306.084.425-.201 0-.218.102a.403.403 0 0 0 .117.442c.319.237.62.475.955.68.335.203.753.39 1.122.577a1.46 1.46 0 0 1-.385 0l-1.809-.816-.636-.255c-.167 0-.234 0-.2.17h-.27c-.184.12-.184.187-.184.374a.71.71 0 0 0 .486.408c.097.032.192.072.284.119H5.74c-.3-.093-.62-.093-.92 0-.235.119-.235.136 0 .305h-.486v.255L4 9.493l.301.424v.17l.386-.085-.101.289.77-.102c0 .136-.15.322 0 .492a12.565 12.565 0 0 0 1.825-.764c-.53.318-.844.905-.82 1.529l.82-.493v.204-.17a2.74 2.74 0 0 1 .386-.594c.429-.399.921-.72 1.456-.952l.52-.238-1.039.527c-.383.16-.726.403-1.004.714-.235.271-.218.34 0 .526a.962.962 0 0 0-.268.986c.167 0 .351 0 .519-.153.218-.04.431-.102.636-.187.108-.082.209-.173.301-.272l.168.408.703-1.037v.136a.53.53 0 0 0 .139.413c.102.11.247.17.397.165a.268.268 0 0 0 .184-.119c0-.17.117-.357.168-.527.025-.163.025-.33 0-.492.083-.12.083-.374-.017-.476a.446.446 0 0 1 .104-.412.432.432 0 0 1 .398-.132.67.67 0 0 1 .553.323c.62 1.053 1.222 2.09 1.858 3.126.402.646.837 1.291 1.256 1.937.1.136 0 .153 0 .17a4.48 4.48 0 0 0-.552.187.997.997 0 0 1-.89-.05 1.018 1.018 0 0 1-.5-.749c-.117-.442-.184-.917-.285-1.376a.919.919 0 0 0-.435-.68v.17c-.251 0-.352 0-.486.187-.2.303-.2.7 0 1.003.134.22.268.441.419.662-.168-.187-.352-.357-.503-.56-.15-.204-.368-.595-.569-.867a.916.916 0 0 0-.552-.425c-.118.204-.118.204 0 .969l-.235-.12a1.918 1.918 0 0 0-.351-.203h-.335c-.034 0-.168.136-.268.136a.266.266 0 0 0-.252.09.277.277 0 0 0-.05.267.185.185 0 0 1 0 .135l-.117.187c.335.136.72 0 1.005.272-.139.026-.28.026-.419 0-.134 0-.251 0-.284.17-.02.145.075.28.217.306l.77.153h.52-.352a1.032 1.032 0 0 0-.754.272c-.083.102-.083.17 0 .237l.536.29a.15.15 0 0 1-.167 0l-.854-.442a2.458 2.458 0 0 0-.52-.136c-.217 0-.317.153-.234.356l.235.306a4 4 0 0 0 .368.357c-.452 0-.854-.289-1.306 0l.184.272-.686.696c.285.25.672.344 1.038.255l-.218.51a5.527 5.527 0 0 0 2.428-.663 4.43 4.43 0 0 1-.452.357c-.295.177-.603.33-.92.459-.47.187-.972.34-1.458.51-.15 0-.167.152 0 .237.168.085.151 0 .235.12a3.38 3.38 0 0 0-.235.271c-.134.17 0 .357.151.374.178.026.358.026.536 0 .285 0 .552-.204.82-.306-.586.384-.987 1-1.105 1.699.302.119.553 0 .837-.187a1.359 1.359 0 0 0-.184 1.07l.385-.119a.914.914 0 0 0 0 .9l.1.035.101.374c0 .135.1.271.251.17l.151-.442c.218.187.318.153.335-.085a1.093 1.093 0 0 0 0-.323v-.39l.201.152c0-.085.1-.17.134-.255.033-.085 0-.119 0-.17 0-.645.1-1.29.167-1.936.036-.322.177-.621.402-.85-.084.306-.15.595-.217.884-.062.358.072.722.351.951l.586-.595c.218.12.385 0 .369-.254-.017-.255 0-.493 0-.748 0-.51.1-1.002.184-1.512.02-.355.162-.692.402-.951.301-.272.636-.51.954-.782.117 0 .167 0 .117.136-.072.2-.162.394-.268.578-.25.305-.519.611-.787.9a.992.992 0 0 0-.301.697c0 .17 0 .254.2.271-.048.26.02.528.185.731.527-.114.9-.592.888-1.138v-.527a.64.64 0 0 1 .117.612c-.062.45-.022.91.117 1.342a.551.551 0 0 0 .15.272.36.36 0 0 0 .252.119s.15-.153.167-.238c0-.132-.016-.264-.05-.391z"/><path fill="#FFF" d="m13.06 12.097 2.012.31c.382.03.716.262.865.603.09.24.083.503-.02.737-.221.37-.483.719-.704 1.068-.221.35-.14.117-.201 0-.644-.951-1.308-1.941-2.012-2.815l.06.097z"/><path fill="#3A3A38" d="m22 12.924-.586-.493.084-.153a1.085 1.085 0 0 0-.754-.373l.084-.46a3.306 3.306 0 0 0-1.808.324l.284-.561.168-.238v-.238a1.493 1.493 0 0 0-.285-.271s-.117 0-.167-.085l.736-.46c.151-.101.134-.169 0-.254v-.578a.415.415 0 0 1-.536-.152h-.184l-1.055.628-.134.102c.319-.544.955-.747 1.357-1.223h-.168v-.374l-.887.17c0-.22.218-.459.301-.73a.494.494 0 0 0 0-.374h-.284v-.629h-.201c0-.289 0-.425-.252-.39-.25.033-.318.101-.485 0v.543h-.117c-.235-.119-.335 0-.352.204a.835.835 0 0 0 0 .187c.022.138.055.275.1.407-.286-.05-.547-.2-.736-.424a1.574 1.574 0 0 0-.318-.221.134.134 0 0 0-.134 0 .734.734 0 0 0-.134.17l.016.306c-.167 0-.15.186 0 .322.151.136.252.663.369.986a.92.92 0 0 0-.586 1.07v.595-.255c-.117-.459-.201-.935-.318-1.393 0-.153-.1-.306-.285-.306-.184 0-.184.119-.285.187-.485-.391-.569-.459-.904-.272-.15-.102-.552-.153-.62 0-.066.153 0 .39.084.578h-.167c0 .322.335.424.502.645h-.485a1.038 1.038 0 0 0 0 .408c.128.195.268.382.418.56l-.787.221a8.876 8.876 0 0 1-.686-1.07.786.786 0 0 1 .402-1.342h.134l1.289-.476 1.356-.56a.304.304 0 0 0-.1-.153.581.581 0 0 0-.235 0l.67-.51a.436.436 0 0 0 .084-.136c-.117-.119 0-.153 0-.204a.589.589 0 0 0 .15-.238l-.853.221a2.054 2.054 0 0 0-.319.204c.134-.204.436-.22.486-.543h-.385v-.12a.203.203 0 0 0 .09-.17.207.207 0 0 0-.09-.17.488.488 0 0 0-.268 0l-.335.222h-.15a.484.484 0 0 0-.52.255.984.984 0 0 0 0 .203c-.854-.034-1.004.476-1.004.986 0-.493-.235-.765-.704-.748h-.519c-.134 0-.2 0-.134.238h-.167l-.15.102a.468.468 0 0 0 0 .204c.133.136.3.255.451.39.151.137.57.442.553.833a3.824 3.824 0 0 1-.168.833c-.334-.51-.67-.986-.97-1.479a.942.942 0 0 1 .167-1.308c.234-.22.485-.407.703-.628a.887.887 0 0 0 .385-.646 1.075 1.075 0 0 0-.82.187c.113-.12.214-.25.301-.39a.225.225 0 0 0 0-.205.314.314 0 0 0-.218 0 .439.439 0 0 0-.184 0c.01-.124.01-.249 0-.373v-.102c0 .017-.15 0-.2-.136-.051-.136-.101 0-.151 0a.335.335 0 0 0-.419.34c-.251-.102-.285 0-.352.186a.307.307 0 0 0 0 .17c0 .306 0 .612.1.935.101.323 0 .357 0 .543h-.217c0-.17-.117-.322-.15-.492-.07-.423-.03-.856.117-1.257a.586.586 0 0 0-.134-.646c-.252-.272-.235-.289-.486 0 .017-.272.017-.459.017-.646 0-.186-.117-.288-.318-.254a1.242 1.242 0 0 0-.185-.29 4.725 4.725 0 0 0-.485-.288L7.7 2l-.217.238v.085c-.268 0-.302 0-.184.272.117.271.284.458.452.73l-.218-.204a.864.864 0 0 0-.753-.17c-.134 0-.185.136 0 .238l.217.204c-.15 0-.134.136 0 .238.037.14.1.273.184.39a5.46 5.46 0 0 1 1.39 1.326c.117.153.218.323.318.476h-.284a22.703 22.703 0 0 1-.787-1.003l-.285-.357a.203.203 0 0 0-.167 0v.357c0 .068-.352-.425-.687-.238a.728.728 0 0 0-.268-.119c-.1 0-.184 0-.284.085.026.077.06.151.1.221a.303.303 0 0 0 0 .12c-.218.169-.218.203 0 .339 0 .119-.134.255-.1.306.033.05.2.102.3.153h.486a1.093 1.093 0 0 1-.284.136c-.218 0-.251.17-.084.34.078.06.162.111.251.152 0 0 .117 0 .134.102s0 .306.084.425-.201 0-.218.102a.403.403 0 0 0 .117.442c.319.237.62.475.955.68.335.203.753.39 1.122.577a1.46 1.46 0 0 1-.385 0l-1.809-.816-.636-.255c-.167 0-.234 0-.2.17h-.27c-.184.12-.184.187-.184.374a.71.71 0 0 0 .486.408c.097.032.192.072.284.119H5.74c-.3-.093-.62-.093-.92 0-.235.119-.235.136 0 .305h-.486v.255L4 9.493l.301.424v.17l.386-.085-.101.289.77-.102c0 .136-.15.322 0 .492a12.565 12.565 0 0 0 1.825-.764c-.53.318-.844.905-.82 1.529l.82-.493v.204-.17a2.74 2.74 0 0 1 .386-.594c.429-.399.921-.72 1.456-.952l.52-.238-1.039.527c-.383.16-.726.403-1.004.714-.235.271-.218.34 0 .526a.962.962 0 0 0-.268.986c.167 0 .351 0 .519-.153.218-.04.431-.102.636-.187.108-.082.209-.173.301-.272l.168.408.703-1.037v.136a.53.53 0 0 0 .139.413c.102.11.247.17.397.165a.268.268 0 0 0 .184-.119c0-.17.117-.357.168-.527.025-.163.025-.33 0-.492.083-.12.083-.374-.017-.476a.446.446 0 0 1 .104-.412.432.432 0 0 1 .398-.132.67.67 0 0 1 .553.323c.62 1.053 1.222 2.09 1.858 3.126.402.646.837 1.291 1.256 1.937.1.136 0 .153 0 .17a4.48 4.48 0 0 0-.552.187.997.997 0 0 1-.89-.05 1.018 1.018 0 0 1-.5-.749c-.117-.442-.184-.917-.285-1.376a.919.919 0 0 0-.435-.68v.17c-.251 0-.352 0-.486.187-.2.303-.2.7 0 1.003.134.22.268.441.419.662-.168-.187-.352-.357-.503-.56-.15-.204-.368-.595-.569-.867a.916.916 0 0 0-.552-.425c-.118.204-.118.204 0 .969l-.235-.12a1.918 1.918 0 0 0-.351-.203h-.335c-.034 0-.168.136-.268.136a.266.266 0 0 0-.252.09.277.277 0 0 0-.05.267.185.185 0 0 1 0 .135l-.117.187c.335.136.72 0 1.005.272-.139.026-.28.026-.419 0-.134 0-.251 0-.284.17-.02.145.075.28.217.306l.77.153h.52-.352a1.032 1.032 0 0 0-.754.272c-.083.102-.083.17 0 .237l.536.29a.15.15 0 0 1-.167 0l-.854-.442a2.458 2.458 0 0 0-.52-.136c-.217 0-.317.153-.234.356l.235.306a4 4 0 0 0 .368.357c-.452 0-.854-.289-1.306 0l.184.272-.686.696c.285.25.672.344 1.038.255l-.218.51a5.527 5.527 0 0 0 2.428-.663 4.43 4.43 0 0 1-.452.357c-.295.177-.603.33-.92.459-.47.187-.972.34-1.458.51-.15 0-.167.152 0 .237.168.085.151 0 .235.12a3.38 3.38 0 0 0-.235.271c-.134.17 0 .357.151.374.178.026.358.026.536 0 .285 0 .552-.204.82-.306-.586.384-.987 1-1.105 1.699.302.119.553 0 .837-.187a1.359 1.359 0 0 0-.184 1.07l.385-.119a.914.914 0 0 0 0 .9l.1.035.101.374c0 .135.1.271.251.17l.151-.442c.218.187.318.153.335-.085a1.093 1.093 0 0 0 0-.323v-.39l.201.152c0-.085.1-.17.134-.255.033-.085 0-.119 0-.17 0-.645.1-1.29.167-1.936.036-.322.177-.621.402-.85-.084.306-.15.595-.217.884-.062.358.072.722.351.951l.586-.595c.218.12.385 0 .369-.254-.017-.255 0-.493 0-.748 0-.51.1-1.002.184-1.512.02-.355.162-.692.402-.951.301-.272.636-.51.954-.782.117 0 .167 0 .117.136-.072.2-.162.394-.268.578-.25.305-.519.611-.787.9a.992.992 0 0 0-.301.697c0 .17 0 .254.2.271-.048.26.02.528.185.731.527-.114.9-.592.888-1.138v-.527a.64.64 0 0 1 .117.612c-.062.45-.022.91.117 1.342a.551.551 0 0 0 .15.272.36.36 0 0 0 .252.119s.15-.153.167-.238c.017-.13.017-.261 0-.391l.318.459c.12.16.248.313.386.458.06.06.127.112.2.153l.118-.187.25.12c.218 0 .352 0 .319-.273a2.116 2.116 0 0 1 0-.356h.301a2.872 2.872 0 0 0-.753-1.122c.232.098.5.052.686-.118-.435-.544-1.155-.731-1.574-1.343h.201a.528.528 0 0 0 .62 0c.15-.102.184-.22 0-.356-.184-.136-.268-.29-.402-.442a.354.354 0 0 0 .1-.085.42.42 0 0 0 0-.238s-.117-.102-.184-.085l-.552.085a.96.96 0 0 1-.385 0s-.118 0-.134-.153c-.017-.153 0-.102.117-.136h.234l.904-.136a.618.618 0 0 1 .52.187l1.322 1.088c.385.322.77.662 1.122 1.019.352.357.285.425.436.629.038.082.11.143.196.17a.316.316 0 0 0 .256-.035 2.599 2.599 0 0 0-.151-.39 4.47 4.47 0 0 0-1.055-1.122l-1.825-1.597a.562.562 0 0 1-.285-.577c.091-.442.274-.859.536-1.223a.63.63 0 0 1 .888-.102c.244.185.473.39.686.611.251.204.469.442.72.629s.251 0 .318-.12c.27.217.612.32.955.29 0-.799-.62-1.07-1.19-1.376.117-.02.236-.02.352 0l1.507.441c.248.058.506.058.754 0 0-.407-.368-.51-.636-.662h.268c.184 0 .351.187.535.255.129.009.257.009.385 0l-.1-.068.653-.391zM9.676 7.063c.297.184.548.434.737.73.234.425.469.833.737 1.274-.82-.424-1.49-.849-1.474-2.004zm1.675 9.123c-.397.085-.81.03-1.172-.153.62-.221 1.205-.476 1.808-.68.26-.043.526-.043.787 0a3.47 3.47 0 0 1-1.34.833h-.083zm1.473-4.961.318.102c-.117.153-.134.153-.234-.102h-.084zm2.813 2.09c-.184.322-.402.628-.586.934-.184.306-.117.102-.167 0-.536-.832-1.089-1.699-1.675-2.463l1.675.271a.857.857 0 0 1 .72.527.894.894 0 0 1 .033.73zm.402-.918a3.924 3.924 0 0 1 .335-2.803c.54.924.403 2.1-.335 2.871v-.068zm1.34-.204c-.265.31-.651.485-1.055.476v-.17c.25-.425.485-.883.77-1.291.29-.384.786-.54 1.239-.39l-.954 1.375z"/><path fill="#FFF" d="M13.19 11.999c-.24.18-.26.18-.38-.12l.38.12z"/></g></svg>