<svg xmlns="http://www.w3.org/2000/svg" width="24" height="24" viewBox="0 0 24 24">
    <g fill="none" fill-rule="evenodd">
        <g fill-rule="nonzero">
            <g>
                <g>
                    <g>
                        <g>
                            <g>
                                <g>
                                    <path fill="#3C3C3B" d="M24 24H0V0h24v24zM.559 23.441H23.44V.56H.56V23.44z" transform="translate(-806 -4777) translate(238 1786) translate(132 2575) translate(0 198) translate(0 71) translate(380 147) translate(56)"/>
                                    <path fill="#434342" d="M6.32 17c-.562-.04-1.082-.28-1.439-.667-1.388-1.589-2.047-3.58-1.845-5.577C3.294 7.18 4.42 5.081 6.136 5v.683c-.923 0-2.085 1.398-2.362 5.106-.204 1.808.37 3.618 1.606 5.073.219.237.526.398.867.455.849 0 1.846-1.837 1.846-4.585.166-2.082-.443-3.366-1.33-3.545-.069-.032-.151-.032-.22 0-.204.13-.684.667-.942 2.862-.191.864 0 1.76.535 2.504.049.012.1.012.148 0 .245-.86.327-1.75.24-2.634v-.147h.794V11c0 2.146-.13 3.252-.942 3.252-.293.02-.58-.083-.775-.276-.703-.878-.976-1.968-.757-3.025.203-1.82.628-2.91 1.255-3.252.238-.157.54-.216.83-.162.813.146 2.142.878 2.068 4.227C8.923 14.268 8.056 17 6.321 17z" transform="translate(-806 -4777) translate(238 1786) translate(132 2575) translate(0 198) translate(0 71) translate(380 147) translate(56)"/>
                                    <path fill="#454544" d="M14.972 7.502C12.771 5.629 9.883 4.746 7 5.064c.501.502.973 1.034 1.413 1.59 1.046 1.603 1.559 3.49 1.465 5.396.077 2.517-.773 4.975-2.39 6.917 2.097.195 4.182-.482 5.757-1.867 2.097-1.523 3.732-3.586 4.728-5.967.07-.415.244-1.072-3-3.631zM13.001 9.68c-1.03-.294-2.146-.484-2.146-.484l-.61-2.785c1.673.518 3.278 1.232 4.78 2.127.797.618 1.447 1.404 1.901 2.3l-3.925-1.158z" transform="translate(-806 -4777) translate(238 1786) translate(132 2575) translate(0 198) translate(0 71) translate(380 147) translate(56)"/>
                                    <path fill="#454544" d="M18.127 9.741l2.048-.293s.38-1.627 1.522-1.432c1.142.196 1.087 1.432.689 2.18.96.62.779 2.914-.435 2.8-1.215-.114-1.468-1.627-1.468-1.627L18 11.727c.138-.295.247-.6.326-.912.04-.367-.029-.738-.2-1.074z" transform="translate(-806 -4777) translate(238 1786) translate(132 2575) translate(0 198) translate(0 71) translate(380 147) translate(56)"/>
                                </g>
                            </g>
                        </g>
                    </g>
                </g>
            </g>
        </g>
    </g>
</svg>
