<svg xmlns="http://www.w3.org/2000/svg" width="24" height="24" viewBox="0 0 24 24"><g fill="none"><path fill="#3C3C3B" d="M24 24H0V0h24v24zM.559 23.441H23.44V.56H.56v22.88z"/><path fill="#CDCDCC" d="M11.701 5.284c-2.164-.954-4.928.572-6.13 3.469s-.447 5.915 1.717 6.938c2.163 1.024 4.91-.59 6.13-3.469 1.22-2.88.464-6.002-1.717-6.938zm-5.289 5.1a.514.514 0 0 1 .601-.33.54.54 0 0 1 .172.711.515.515 0 0 1-.618.347.523.523 0 0 1-.155-.729zm.807 2.896a.5.5 0 0 1-.618.347.523.523 0 0 1-.189-.694.531.531 0 0 1 .601-.347.523.523 0 0 1 .206.694zm0-4.232a.715.715 0 0 1-.257-.972.719.719 0 0 1 .892-.485c.33.202.438.635.24.971a.705.705 0 0 1-.926.486h.051zm1.958 3.868a.721.721 0 0 1-.876.486.733.733 0 0 1-.24-.99.72.72 0 0 1 .875-.485.75.75 0 0 1 .24.989zm.171-3.66a.541.541 0 0 1-.171-.711.514.514 0 0 1 .618-.347c.24.15.317.466.172.711a.515.515 0 0 1-.619.347zm.636 2.428a.836.836 0 0 1-.292-1.11.839.839 0 0 1 .996-.52c.361.243.48.724.275 1.11a.823.823 0 0 1-.98.52zm1.305 2.394a.549.549 0 0 1-.636.347.54.54 0 0 1-.171-.694.514.514 0 0 1 .635-.347c.23.149.306.453.172.694zm0-6.227a.75.75 0 0 1-.24-.989.72.72 0 0 1 .875-.486c.333.21.44.648.24.99a.718.718 0 0 1-.84.485h-.035zm1.356 1.526a.494.494 0 0 1-.617.347.524.524 0 0 1-.19-.694c.138-.295.412-.45.636-.347a.524.524 0 0 1 .206.694h-.035z"/><path fill="#3D3C3C" d="M19.485 4.737c-1.33-2.63-4.985-1.73-7.045-.813L9 5.239a3.3 3.3 0 0 1 1.91.242c2.111.935 2.859 4.016 1.663 6.923A6.801 6.801 0 0 1 10.695 15c1.113-.64 4.652-2.717 6.48-3.998 2.227-1.592 3.64-3.651 2.31-6.265z"/><path fill="#CDCDCC" d="M11 4.565c2.02-.67 4.1-1.194 6.221-1.565 1.037 0 1.857.478 1.773.55-.083.073-.652-.449-2.542 0-1.466.42-2.906.904-4.315 1.45L11 4.565z"/><path fill="#3D3C3C" d="M14.994 18.054c-.26 1.416-2.595 2.527-5.432 2.527S4.372 19.45 4.113 18h-.086c-.12.693.165 1.395.726 1.792a8.493 8.493 0 0 0 4.705 1.2 11.207 11.207 0 0 0 4.757-1.164c.538-.42.832-1.096.779-1.792v.018z"/><path fill="#3D3C3C" d="M13.806 18.605a7.163 7.163 0 0 1-4.653 1.302c-2.794 0-5.072-.965-5.072-2.145 0-.643.662-1.226 1.712-1.624L5.955 16C4.759 16.414 4 17.042 4 17.762c0 1.226 2.31 2.222 5.153 2.222A6.906 6.906 0 0 0 14 18.452l-.194.153z"/><path fill="#CDCDCC" d="M10.906 19.194a.928.928 0 0 1-.573.08l-.246-.08c-2.636 0-4.715-1.06-4.715-2.247.017-.367.189-.71.475-.947a3.102 3.102 0 0 0-1.637 1.06c-.803 1.171.77 2.44 3.503 2.824 2.734.386 5.403-.224 6.287-1.348a8.756 8.756 0 0 1-3.094.658zm-4.404-.385a.78.78 0 0 1-.639.144c-.278 0-.442-.176-.36-.288a.763.763 0 0 1 .655-.145c.262.032.426.16.344.289z"/><path fill="#CDCDCC" d="M15.78 18.272c.847-1.32-.83-2.695-3.69-3.141-2.862-.446-6.023.286-6.87 1.606-.848 1.32.83 2.712 3.761 3.14 2.932.429 5.951-.303 6.799-1.605zm-5.457-2.516c.3 0 .477.178.389.32a.837.837 0 0 1-.689.161c-.3 0-.477-.178-.388-.32a.82.82 0 0 1 .688-.161zm-2.878.713c-.3 0-.477-.178-.389-.32a.823.823 0 0 1 .689-.161c.3 0 .477.196.389.32a.737.737 0 0 1-.69.161zm4.273-.41c.28-.221.642-.306.99-.232.423 0 .653.268.529.446s-.547.303-.971.232c-.424-.071-.671-.25-.548-.446zm-3.814 1.48c-.406 0-.653-.249-.53-.445.274-.218.63-.303.971-.232.424 0 .671.268.548.464a1.14 1.14 0 0 1-.989.214zm3.726-.178c.193-.17.46-.23.706-.16.3 0 .46.178.371.321-.088.143-.388.196-.689.16-.3-.035-.476-.32-.388-.32zm-2.42.571c.124-.214.619-.32 1.096-.25.476.072.741.286.6.5-.141.214-.618.321-1.095.25-.477-.071-.742-.339-.6-.553v.053zm-2.419.91c-.3 0-.476-.196-.388-.32a.752.752 0 0 1 .706-.161c.283 0 .46.178.371.32a.822.822 0 0 1-.689.161zm6.305-.553c.28-.22.641-.306.989-.232.423 0 .653.268.547.464-.28.222-.644.302-.989.214-.37-.053-.618-.25-.494-.446h-.053zm-1.43.857c-.3 0-.46-.196-.39-.321a.75.75 0 0 1 .707-.16c.3 0 .477.177.389.32a.874.874 0 0 1-.707.16z"/><path fill="#3D3C3C" d="M16 17.053c-.26 1.41-2.595 2.515-5.431 2.515-2.837 0-5.19-1.124-5.449-2.568h-.104c-.09.69.196 1.375.744 1.783a8.45 8.45 0 0 0 4.636 1.213 11.304 11.304 0 0 0 4.791-1.177c.538-.419.832-1.09.778-1.783l.035.017z"/><path fill="#3D3C3C" d="M10.5 20C7.466 20 5 18.87 5 17.5S7.466 15 10.5 15s5.5 1.113 5.5 2.5-2.466 2.5-5.5 2.5zm0-4.914c-2.983 0-5.414 1.078-5.414 2.414s2.431 2.397 5.414 2.397c2.983 0 5.414-1.079 5.414-2.397 0-1.318-2.431-2.414-5.414-2.414z"/></g></svg>