<svg xmlns="http://www.w3.org/2000/svg" width="24" height="24" viewBox="0 0 24 24">
    <g fill="none" fill-rule="evenodd">
        <g fill-rule="nonzero">
            <g>
                <g>
                    <g>
                        <g>
                            <g>
                                <g>
                                    <path fill="#3C3C3B" d="M24 24H0V0h24v24zM.559 23.441H23.44V.56H.56V23.44z" transform="translate(-846 -2697) translate(238 1786) translate(132 556) translate(0 137) translate(0 71) translate(340 147) translate(136)"/>
                                    <path fill="#CDCDCC" d="M11.701 5.284c-2.164-.954-4.928.572-6.13 3.469s-.447 5.915 1.717 6.938c2.163 1.024 4.91-.59 6.13-3.469 1.22-2.88.464-6.002-1.717-6.938zm-5.289 5.1c.089-.248.347-.39.601-.33.233.155.308.465.172.711-.083.263-.354.415-.618.347-.118-.075-.2-.194-.23-.331-.029-.138-.002-.28.075-.398zm.807 2.896c-.036.13-.121.239-.237.304-.117.065-.254.08-.381.043-.237-.143-.32-.449-.189-.694.088-.25.343-.396.601-.347.243.137.334.445.206.694zm0-4.232c-.337-.197-.452-.632-.257-.972.115-.381.513-.598.892-.485.33.202.438.635.24.971-.05.195-.18.358-.356.45-.177.093-.384.106-.57.036h.051zm1.958 3.868c-.116.373-.502.587-.876.486-.333-.21-.44-.648-.24-.99.115-.372.502-.586.875-.485.325.215.43.647.24.989zm.171-3.66c-.232-.155-.307-.465-.171-.711.082-.263.353-.415.618-.347.24.15.317.466.172.711-.083.263-.354.415-.619.347zm.636 2.428c-.375-.232-.504-.72-.292-1.11.152-.404.581-.628.996-.52.361.243.48.724.275 1.11-.146.402-.57.627-.98.52zm1.305 2.394c-.096.26-.368.408-.636.347-.223-.154-.297-.452-.171-.694.082-.271.365-.426.635-.347.23.149.306.453.172.694zm0-6.227c-.325-.215-.43-.647-.24-.989.115-.373.502-.587.875-.486.333.21.44.648.24.99-.114.356-.478.566-.84.485h-.035zm1.356 1.526c-.036.13-.121.239-.237.304-.116.065-.253.08-.38.043-.237-.143-.32-.449-.19-.694.138-.295.412-.45.636-.347.243.138.334.445.206.694h-.035z" transform="translate(-846 -2697) translate(238 1786) translate(132 556) translate(0 137) translate(0 71) translate(340 147) translate(136)"/>
                                    <path fill="#3D3C3C" d="M19.485 4.737c-1.33-2.63-4.985-1.73-7.045-.813L9 5.239c.646-.111 1.31-.027 1.91.242 2.111.935 2.859 4.016 1.663 6.923-.416 1.01-1.06 1.901-1.878 2.596 1.113-.64 4.652-2.717 6.48-3.998 2.227-1.592 3.64-3.651 2.31-6.265z" transform="translate(-846 -2697) translate(238 1786) translate(132 556) translate(0 137) translate(0 71) translate(340 147) translate(136)"/>
                                    <path fill="#CDCDCC" d="M11 4.565c2.02-.67 4.1-1.194 6.221-1.565 1.037 0 1.857.478 1.773.55-.083.073-.652-.449-2.542 0-1.466.42-2.906.904-4.315 1.45L11 4.565z" transform="translate(-846 -2697) translate(238 1786) translate(132 556) translate(0 137) translate(0 71) translate(340 147) translate(136)"/>
                                    <path fill="#3D3C3C" d="M14.994 18.054c-.26 1.416-2.595 2.527-5.432 2.527S4.372 19.45 4.113 18h-.086c-.12.693.165 1.395.726 1.792 1.428.852 3.06 1.268 4.705 1.2 1.648-.031 3.27-.429 4.757-1.164.538-.42.832-1.096.779-1.792v.018z" transform="translate(-846 -2697) translate(238 1786) translate(132 556) translate(0 137) translate(0 71) translate(340 147) translate(136)"/>
                                    <path fill="#3D3C3C" d="M13.806 18.605c-1.333.954-2.987 1.417-4.653 1.302-2.794 0-5.072-.965-5.072-2.145 0-.643.662-1.226 1.712-1.624L5.955 16C4.759 16.414 4 17.042 4 17.762c0 1.226 2.31 2.222 5.153 2.222 1.766.12 3.51-.432 4.847-1.532l-.194.153z" transform="translate(-846 -2697) translate(238 1786) translate(132 556) translate(0 137) translate(0 71) translate(340 147) translate(136)"/>
                                    <path fill="#CDCDCC" d="M10.906 19.194c-.177.087-.378.115-.573.08l-.246-.08c-2.636 0-4.715-1.06-4.715-2.247.017-.367.189-.71.475-.947-.648.17-1.223.542-1.637 1.06-.803 1.171.77 2.44 3.503 2.824 2.734.386 5.403-.224 6.287-1.348-.981.405-2.03.628-3.094.658zm-4.404-.385c-.18.139-.415.192-.639.144-.278 0-.442-.176-.36-.288.183-.147.426-.2.655-.145.262.032.426.16.344.289z" transform="translate(-846 -2697) translate(238 1786) translate(132 556) translate(0 137) translate(0 71) translate(340 147) translate(136)"/>
                                    <path fill="#CDCDCC" d="M15.78 18.272c.847-1.32-.83-2.695-3.69-3.141-2.862-.446-6.023.286-6.87 1.606-.848 1.32.83 2.712 3.761 3.14 2.932.429 5.951-.303 6.799-1.605zm-5.457-2.516c.3 0 .477.178.389.32-.196.153-.447.212-.689.161-.3 0-.477-.178-.388-.32.194-.155.446-.214.688-.161zm-2.878.713c-.3 0-.477-.178-.389-.32.195-.155.447-.214.689-.161.3 0 .477.196.389.32-.188.168-.448.229-.69.161zm4.273-.41c.28-.221.642-.306.99-.232.423 0 .653.268.529.446s-.547.303-.971.232c-.424-.071-.671-.25-.548-.446zm-3.814 1.48c-.406 0-.653-.249-.53-.445.274-.218.63-.303.971-.232.424 0 .671.268.548.464-.28.222-.644.301-.989.214zm3.726-.178c.193-.17.46-.23.706-.16.3 0 .46.178.371.321-.088.143-.388.196-.689.16-.3-.035-.476-.32-.388-.32zm-2.42.571c.124-.214.619-.32 1.096-.25.476.072.741.286.6.5-.141.214-.618.321-1.095.25-.477-.071-.742-.339-.6-.553v.053zm-2.419.91c-.3 0-.476-.196-.388-.32.193-.171.46-.232.706-.161.283 0 .46.178.371.32-.194.155-.447.214-.689.161zm6.305-.553c.28-.22.641-.306.989-.232.423 0 .653.268.547.464-.28.222-.644.302-.989.214-.37-.053-.618-.25-.494-.446h-.053zm-1.43.857c-.3 0-.46-.196-.39-.321.194-.171.46-.232.707-.16.3 0 .477.177.389.32-.202.153-.46.212-.707.16z" transform="translate(-846 -2697) translate(238 1786) translate(132 556) translate(0 137) translate(0 71) translate(340 147) translate(136)"/>
                                    <path fill="#3D3C3C" d="M16 17.053c-.26 1.41-2.595 2.515-5.431 2.515-2.837 0-5.19-1.124-5.449-2.568h-.104c-.09.69.196 1.375.744 1.783 1.404.845 3.01 1.266 4.636 1.213 1.66-.034 3.294-.435 4.791-1.177.538-.419.832-1.09.778-1.783l.035.017z" transform="translate(-846 -2697) translate(238 1786) translate(132 556) translate(0 137) translate(0 71) translate(340 147) translate(136)"/>
                                    <path fill="#3D3C3C" d="M10.5 20C7.466 20 5 18.87 5 17.5S7.466 15 10.5 15s5.5 1.113 5.5 2.5-2.466 2.5-5.5 2.5zm0-4.914c-2.983 0-5.414 1.078-5.414 2.414s2.431 2.397 5.414 2.397c2.983 0 5.414-1.079 5.414-2.397 0-1.318-2.431-2.414-5.414-2.414z" transform="translate(-846 -2697) translate(238 1786) translate(132 556) translate(0 137) translate(0 71) translate(340 147) translate(136)"/>
                                </g>
                            </g>
                        </g>
                    </g>
                </g>
            </g>
        </g>
    </g>
</svg>
