<svg xmlns="http://www.w3.org/2000/svg" width="24" height="25" viewBox="0 0 24 25"><g fill="none"><path fill="#3F3F3E" d="M24 24.5H0V.5h24v24zM.559 23.941H23.44V1.06H.56v22.88z"/><path fill="#434342" d="M11.841 9.688s-4.465-.27-6.336-.162c-1.465 0 .565 2.566 2.188 3.813A7.714 7.714 0 0 0 12 14.496l-.159-4.808zM7.464 11.17a.537.537 0 0 1-.512-.542c0-.29.23-.524.512-.524.283 0 .512.235.512.524a.536.536 0 0 1-.512.542zM13 9.63l2.873-.13.127 5-3-.056zm4-.13v4.46s1.13 0 1.349.54C19.055 13.472 21 11.19 21 11.19a4.925 4.925 0 0 0-1.569-1.324c-.8-.193-1.613-.315-2.431-.366zm1 5.927 2.934 3.073c.56-.877.91-1.896 1.016-2.964a5.99 5.99 0 0 0-.393-3.036l-3.442 2.364-.115.563zm-1.726.183L16 18.93c.638.436 1.4.631 2.16.553a5.126 5.126 0 0 0 1.84-.822L17.688 15.5l-1.414.11zm-7.856.247L7 16.277s.727 1.04 1.454.84l3.546-.88-3.582-.38zm.124 3.641a5.031 5.031 0 0 0 2.55-1.048c.594-.517.921-1.22.908-1.95-.9.294-1.714.759-2.38 1.36-.851.623-1.74 1.212-1.607 1.442.132.23.53.196.53.196z"/><path fill="#434342" d="M8.057 14.67c-.161.442.03.94.436 1.14 1.153.28 2.326.454 3.507.52a4.041 4.041 0 0 0-1.516-1.04 10.343 10.343 0 0 0-2.427-.62z"/><path fill="#434342" d="M8 17.203c0 .41.78.312 1.228.197A21.27 21.27 0 0 0 12 15.5s-2.689.573-3.32.819c-.348.18-.597.505-.68.884zm6.926-1.703.074 3-2.871-1.131.129-1.082-.258-.623zm-9.892-4.066H3.859c-1.19-.352-1.961-1.449-1.848-2.631.024-.628.31-1.22.795-1.645.387-.375.9-.608 1.45-.658l6.391.016H15v.23H4.291c-.48.052-.926.262-1.26.593-.46.396-.722.957-.726 1.546-.08 1.042.565 2.01 1.589 2.385H5.62v.23l-.587-.066z"/><path fill="#434342" d="M4.924 10.5H3.745c-1.133-.41-1.842-1.497-1.734-2.659.02-.638.308-1.242.798-1.672A2.308 2.308 0 0 1 4.265 5.5H15v.351H4.248c-.485.04-.937.256-1.266.602-.465.324-.782.81-.884 1.355-.075 1.098.643 2.101 1.734 2.424.577.028 1.156.028 1.734 0v.235l-.642.033zM11 9.5h2v1h-2zm0 4h1v1h-1zm4-4h1v1h-1zm0 4h1v1h-1zm-1 2h1v1h-1zm1 3h1v1h-1zm5.698-6.795.747-.664.665.747-.748.665zm-.644 6.169.73-.684.683.73-.73.684z"/></g></svg>