<svg xmlns="http://www.w3.org/2000/svg" width="24" height="25" viewBox="0 0 24 25">
    <g fill="none" fill-rule="evenodd">
        <g fill-rule="nonzero">
            <g>
                <g>
                    <g>
                        <g>
                            <g>
                                <g>
                                    <path fill="#3F3F3E" d="M24 24H0V0h24v24zM.559 23.441H23.44V.56H.56V23.44z" transform="translate(-1090 -4288) translate(238 1786) translate(61 2167) translate(750 54.5) translate(0 71) translate(1 210) translate(40)"/>
                                    <path fill="#434342" d="M11.841 9.188s-4.465-.27-6.336-.162c-1.465 0 .565 2.566 2.188 3.813 1.297.803 2.793 1.205 4.307 1.157l-.159-4.808zM7.464 10.67c-.286-.01-.512-.25-.512-.542 0-.29.23-.524.512-.524.283 0 .512.235.512.524 0 .293-.227.533-.512.542zM13 9.13L15.873 9 16 14 13 13.944zM17 9v4.46s1.13 0 1.349.54C19.055 12.972 21 10.69 21 10.69c-.435-.556-.97-1.007-1.569-1.324-.8-.193-1.613-.315-2.431-.366zM18 14.927L20.934 18c.56-.877.91-1.896 1.016-2.964.134-1.033-.003-2.086-.393-3.036l-3.442 2.364-.115.563zM16.274 15.11L16 18.43c.638.436 1.4.631 2.16.553.658-.148 1.283-.427 1.84-.822L17.688 15l-1.414.11zM8.418 15.357L7 15.777s.727 1.04 1.454.84l3.546-.88-3.582-.38zM8.542 18.998c.954-.115 1.844-.48 2.55-1.048.594-.517.921-1.22.908-1.95-.9.294-1.714.759-2.38 1.36-.851.623-1.74 1.212-1.607 1.442.132.23.53.196.53.196z" transform="translate(-1090 -4288) translate(238 1786) translate(61 2167) translate(750 54.5) translate(0 71) translate(1 210) translate(40)"/>
                                    <path fill="#434342" d="M8.057 14.17c-.161.442.03.94.436 1.14 1.153.28 2.326.454 3.507.52-.425-.463-.943-.818-1.516-1.04-.784-.305-1.598-.513-2.427-.62z" transform="translate(-1090 -4288) translate(238 1786) translate(61 2167) translate(750 54.5) translate(0 71) translate(1 210) translate(40)"/>
                                    <path fill="#434342" d="M8 16.703c0 .41.78.312 1.228.197.974-.56 1.9-1.195 2.772-1.9 0 0-2.689.573-3.32.819-.348.18-.597.505-.68.884zM14.926 15L15 18 12.129 16.869 12.258 15.787 12 15.164zM5.034 10.934H3.859c-1.19-.352-1.961-1.449-1.848-2.631.024-.628.31-1.22.795-1.645.387-.375.9-.608 1.45-.658l6.391.016H15v.23H4.291c-.48.052-.926.262-1.26.593-.46.396-.722.957-.726 1.546-.08 1.042.565 2.01 1.589 2.385H5.62V11l-.587-.066z" transform="translate(-1090 -4288) translate(238 1786) translate(61 2167) translate(750 54.5) translate(0 71) translate(1 210) translate(40)"/>
                                    <path fill="#434342" d="M4.924 10H3.745c-1.133-.41-1.842-1.497-1.734-2.659.02-.638.308-1.242.798-1.672.384-.387.902-.625 1.456-.669H15v.351H4.248c-.485.04-.937.256-1.266.602-.465.324-.782.81-.884 1.355-.075 1.098.643 2.101 1.734 2.424.577.028 1.156.028 1.734 0v.235L4.924 10zM11 9H13V10H11zM11 13H12V14H11zM15 9H16V10H15zM15 13H16V14H15zM14 15H15V16H14zM15 18H16V19H15z" transform="translate(-1090 -4288) translate(238 1786) translate(61 2167) translate(750 54.5) translate(0 71) translate(1 210) translate(40)"/>
                                    <path fill="#434342" d="M21 11H22V12H21z" transform="translate(-1090 -4288) translate(238 1786) translate(61 2167) translate(750 54.5) translate(0 71) translate(1 210) translate(40) rotate(-41.63 21.119 11.5)"/>
                                    <path fill="#434342" d="M20 17H21V18H20z" transform="translate(-1090 -4288) translate(238 1786) translate(61 2167) translate(750 54.5) translate(0 71) translate(1 210) translate(40) rotate(-43.14 20.5 17.119)"/>
                                </g>
                            </g>
                        </g>
                    </g>
                </g>
            </g>
        </g>
    </g>
</svg>
