<svg xmlns="http://www.w3.org/2000/svg" width="24" height="25" viewBox="0 0 24 25"><g fill="none"><path fill="#3C3C3B" d="M24 24.5H0V.5h24v24zM.559 23.941H23.44V1.06H.56v22.88z"/><path fill="#403F3E" d="M3.159 14.45c.9 3.272 7.804 8.8 14.294 4.443 4.403-2.72 5.85-8.423 3.27-12.896-1.004-1.412-4.741-4.804-8.652-2.962a9.456 9.456 0 0 0-4.569 4.201c-.519.534-2.751 2.032-3.547 2.962a5.143 5.143 0 0 0-.796 4.253z"/><path fill="#FFF" d="M4.023 13.478c1.221 4.958 6.786 8.323 12.757 4.108 5.971-4.214 4.258-10.625 2.918-12.077-1.34-1.452-4.02-4.214-7.43-2.426a9.905 9.905 0 0 0-4.377 4.073A32.568 32.568 0 0 0 5.329 9.44a5.355 5.355 0 0 0-1.306 4.038z"/><path fill="#C7C7C7" d="M18.09 6.808c-1.072-1.086-3.98-3.24-6.702-1.861a5.515 5.515 0 0 0-2.976 3.05c-.391.397-1.939.983-2.517 1.724a6 6 0 0 0-.647 4.861c.987 2.327 4.44 4.396 9.406 1.5 5.749-3.223 4.507-8.188 3.436-9.274zm-3.623 4.878a1.54 1.54 0 0 1-1.53-1.55c0-.858.685-1.552 1.53-1.552s1.53.694 1.53 1.551c.005.413-.154.81-.443 1.102-.288.292-.68.454-1.087.45z"/></g></svg>