<svg xmlns="http://www.w3.org/2000/svg" width="24" height="25" viewBox="0 0 24 25">
    <g fill="none" fill-rule="evenodd">
        <g fill-rule="nonzero">
            <g>
                <g>
                    <g>
                        <g>
                            <g>
                                <g>
                                    <path fill="#3C3C3B" d="M24 24H0V0h24v24zM.559 23.441H23.44V.56H.56V23.44z" transform="translate(-1210 -4288) translate(238 1786) translate(61 2167) translate(750 54.5) translate(0 71) translate(1 210) translate(160)"/>
                                    <path fill="#403F3E" d="M3.159 13.95c.9 3.272 7.804 8.8 14.294 4.443 4.403-2.72 5.85-8.423 3.27-12.896-1.004-1.412-4.741-4.804-8.652-2.962-1.955.849-3.565 2.329-4.569 4.201-.519.534-2.751 2.032-3.547 2.962-.878 1.233-1.169 2.788-.796 4.253z" transform="translate(-1210 -4288) translate(238 1786) translate(61 2167) translate(750 54.5) translate(0 71) translate(1 210) translate(160)"/>
                                    <path fill="#FFF" d="M4.023 12.978c1.221 4.958 6.786 8.323 12.757 4.108 5.971-4.214 4.258-10.625 2.918-12.077-1.34-1.452-4.02-4.214-7.43-2.426-1.825.857-3.353 2.279-4.377 4.073-.892.714-1.747 1.477-2.562 2.284-.967 1.09-1.442 2.56-1.306 4.038z" transform="translate(-1210 -4288) translate(238 1786) translate(61 2167) translate(750 54.5) translate(0 71) translate(1 210) translate(160)"/>
                                    <path fill="#C7C7C7" d="M18.09 6.308c-1.072-1.086-3.98-3.24-6.702-1.861-1.355.571-2.427 1.67-2.976 3.05-.391.397-1.939.983-2.517 1.724-.898 1.45-1.133 3.222-.647 4.861.987 2.327 4.44 4.396 9.406 1.5 5.749-3.223 4.507-8.188 3.436-9.274zm-3.623 4.878c-.845 0-1.53-.694-1.53-1.55 0-.858.685-1.552 1.53-1.552s1.53.694 1.53 1.551c.005.413-.154.81-.443 1.102-.288.292-.68.454-1.087.45z" transform="translate(-1210 -4288) translate(238 1786) translate(61 2167) translate(750 54.5) translate(0 71) translate(1 210) translate(160)"/>
                                </g>
                            </g>
                        </g>
                    </g>
                </g>
            </g>
        </g>
    </g>
</svg>
